<svg xmlns="http://www.w3.org/2000/svg" viewBox="0 0 787.4 879.7"><defs><style>.cls-1{fill:#19114a;}.cls-2,.cls-3,.cls-5{fill:#fff;}.cls-3,.cls-5{stroke:#fff;stroke-miterlimit:10;}.cls-3{stroke-width:0.5px;}.cls-4{fill:none;stroke:#19114a;stroke-linejoin:round;stroke-width:5px;}.cls-5{stroke-width:2px;}</style></defs><g id="Layer_1" data-name="Layer 1"><path class="cls-1" d="M284.9,171.5,176.1,279.6c45.3,46.6,49.1,116.4,36.8,195.3-15.3,129.3-47,162.4-5.6,243C237.5,776.3,371.7,845.1,512,919.5,732.2,809.3,804.2,758.8,822.6,708.7c33.7-63.3,7.2-112.8-13.8-241.5-10.1-90,2.6-153.4,40.4-187.6l-107.8-107c-95,29.6-168.7-4.1-229.4-50.6-77.8,60.8-153.4,73.8-227.2,49.5l-4.4-12.2c86.1,24.6,163.3,3.1,232.6-58.5,70.5,47.6,148.5,67.8,237.1,49.1L876,275.6q-58.2,78.8-42.1,191.6c26.4,82.8,42.1,204.3,9.9,247.2C810.9,793.8,667.4,888.7,512,942.6,377,880,257.7,812.5,189.7,728.9,148.3,685.7,157.3,577,192,471.6c3.4-73.4-5-139.2-34.5-191.5L280.4,159.2Z" transform="translate(-120 -85.1)"/><path class="cls-2" d="M282.6,163.1c49.3,14.9,94.3,14.4,135.3,0,33.9-12.6,65-29.9,94.1-50.8a403.9,403.9,0,0,0,108.7,56.4c37,9.2,78,6.8,122.5-5.3L860.7,279.6c-64.1,60-57.5,172.8-14.1,330.9C860.2,773.9,736.3,806.8,513,928.3,299.7,817,164.9,770,178.7,610.5c39.6-154.5,50.2-279.8-12.9-330.9L120,282.8c71.5,46,81.7,99.5,30.6,327.7-19.1,178.6,144,235.1,360.1,354.3,290-139.6,378.8-209.2,363-354.3-38.3-182.1-52.1-284.2,33.7-327.7L750.1,130.7c-42.6,15.2-85.4,20-128.3,11-38.3-11.4-74.7-30.8-109.8-56.6-34.8,26-68.9,44.6-102.3,54.8-51.6,10.5-97.3,7.4-137.2-8.9L120,282.8l45.7-3.2Z" transform="translate(-120 -85.1)"/></g><g id="Layer_2" data-name="Layer 2"><path class="cls-1" d="M379.7,607.6c19.4,61.6,62.3,94.9,132.2,97.7,60.3-.7,105.3-30.7,127.2-97.7,19.5,3,33.5,8.5,42.6,16.4-1.4,13.8-3.8,25.5-7.3,35.2,2.2-1.8,4.6-3.1,7.3-2.6,6.7.3,9.3,4.6,7.9,11.8s-8.2,7.7-15.2,6.1c-8.8-1.4-14.8-5.5-17.5-12.7-28.9,49.6-76.4,78.2-145,82.7-61.1-.2-111.2-25.6-149-79.7-4.4,7.2-12.1,10.6-22,11.3-7-2.6-8.9-6.7-4.6-12.8,2.1-1.9,4.6-2.4,7.7-1a252.2,252.2,0,0,1-3.1-38.3C351.2,616.9,363.6,611.1,379.7,607.6Z" transform="translate(-120 -85.1)"/><path class="cls-3" d="M360.9,629.8l11.6-4.6a1.8,1.8,0,0,1,1.6.1,2.7,2.7,0,0,1,1,1.3,2.4,2.4,0,0,1,.2,1.8,1.7,1.7,0,0,1-1,1.2l-11.4,4.9a1.5,1.5,0,0,1-1.6,0,4,4,0,0,1-1.2-1.6,2.6,2.6,0,0,1-.2-1.9A1.7,1.7,0,0,1,360.9,629.8Z" transform="translate(-120 -85.1)"/><path class="cls-3" d="M379.2,639.9c-1.4,4.1-2.6,8.2-3.7,12.4l8-4.9a1.6,1.6,0,0,1,1.5-.2,2.1,2.1,0,0,1,1.1,1,2.1,2.1,0,0,1,.4,1.5,1.5,1.5,0,0,1-.9,1.2l-10.4,6.8c-1.1.7-2.2.3-3.1-1.1l-.5-1.1a4.3,4.3,0,0,1-.2-1.1c0-.3.1-.7.1-1l.3-1.1c1.1-4.2,2.3-8.3,3.7-12.3l-8.2,4.3a1.9,1.9,0,0,1-1.5,0,3.6,3.6,0,0,1-1.1-1.3,2.4,2.4,0,0,1-.4-1.8,1.4,1.4,0,0,1,1-1.1l10.9-5.3,1.2-.3a2.1,2.1,0,0,1,1.2.5,6.2,6.2,0,0,1,.9,1.2,2.2,2.2,0,0,1,.3,1,1.1,1.1,0,0,1,0,.8,2.9,2.9,0,0,1-.2.9Z" transform="translate(-120 -85.1)"/><path class="cls-3" d="M396.6,680.3a4,4,0,0,1-2.6,1,5.9,5.9,0,0,1-3.4-1.1,13.5,13.5,0,0,1-3.7-3.2,13.1,13.1,0,0,1-2.9-5,6.3,6.3,0,0,1-.3-3,3,3,0,0,1,1.1-2.1,1,1,0,0,1,1.1-.1,2,2,0,0,1,1.2.9,2.1,2.1,0,0,1,.5,1.2,2.7,2.7,0,0,1-.2,1.2c-.2.6-.3,1.1-.4,1.5a3.6,3.6,0,0,0,.3,1.7,5.2,5.2,0,0,0,1.3,2,5.5,5.5,0,0,0,2.6,2.1c.9.3,1.6.3,2.1-.2a1.5,1.5,0,0,0,.5-1.3,6.4,6.4,0,0,0-.6-1.8,23.5,23.5,0,0,0-1.4-2.5,15.4,15.4,0,0,1-1.8-3.7,6.6,6.6,0,0,1-.5-2.9,3,3,0,0,1,1.3-2.2,3.4,3.4,0,0,1,2.4-.6,6.4,6.4,0,0,1,2.9,1.2,16.2,16.2,0,0,1,3.1,2.9,14.8,14.8,0,0,1,1.9,2.7,7.5,7.5,0,0,1,.8,2.4,5.4,5.4,0,0,1,0,1.8,2.3,2.3,0,0,1-.6,1.2,1.1,1.1,0,0,1-1.1.3,1.9,1.9,0,0,1-1.3-.7,1.6,1.6,0,0,1-.5-1,2.6,2.6,0,0,1,.1-1.2,6.9,6.9,0,0,0,.1-2,6.1,6.1,0,0,0-1.3-2.3,5.7,5.7,0,0,0-2.2-1.7,1.5,1.5,0,0,0-1.6,0,.9.9,0,0,0-.4.8,2.6,2.6,0,0,0,.1,1.2l.5,1.2,1.1,1.9a28.8,28.8,0,0,1,1.6,2.9,10.6,10.6,0,0,1,1.1,2.5,5.1,5.1,0,0,1,.1,2.1A3.9,3.9,0,0,1,396.6,680.3Z" transform="translate(-120 -85.1)"/><path class="cls-3" d="M413.5,695.2a3,3,0,0,1-1.4,1,5.3,5.3,0,0,1-2.3.4,9.5,9.5,0,0,1-3.1-.8,15.4,15.4,0,0,1-3.5-2.2,16,16,0,0,1-2.2-2.4,11.4,11.4,0,0,1-1.5-2.3,10.2,10.2,0,0,1-.6-2.5,8.1,8.1,0,0,1,0-2.2,9,9,0,0,1,.8-2.1,10.2,10.2,0,0,1,1.3-1.8,8,8,0,0,1,3-1.9,8.5,8.5,0,0,1,3.2-.3,11.3,11.3,0,0,1,3.5.9,20.4,20.4,0,0,1,3.2,2.2,12.7,12.7,0,0,1,2.8,3.4,8,8,0,0,1,1.1,3.3,3.2,3.2,0,0,1-.5,2.3,1.1,1.1,0,0,1-1,.5,2.1,2.1,0,0,1-1.2-.5,1.9,1.9,0,0,1-.8-1,2.8,2.8,0,0,1,0-1.3,7.1,7.1,0,0,0-.4-2.6,5.7,5.7,0,0,0-1.7-2.2,5.6,5.6,0,0,0-4-1.6,5.7,5.7,0,0,0-4.1,2,6.4,6.4,0,0,0-1.6,2.7,4.5,4.5,0,0,0,.3,2.8,7.2,7.2,0,0,0,1.9,2.5,7.7,7.7,0,0,0,2.9,1.6,4.5,4.5,0,0,0,2.8-.3l1.2-.4a2.2,2.2,0,0,1,1.3.6,2.8,2.8,0,0,1,.8,1.1A1.4,1.4,0,0,1,413.5,695.2Z" transform="translate(-120 -85.1)"/><path class="cls-3" d="M415.1,700.5l7.3-10a2.2,2.2,0,0,1,1.3-.9,3,3,0,0,1,1.5.5,2,2,0,0,1,.9,1.2,2.4,2.4,0,0,1-.3,1.6l-7.1,10.2a1.7,1.7,0,0,1-1.4.8,2.2,2.2,0,0,1-1.6-.5,3.1,3.1,0,0,1-1-1.3A2,2,0,0,1,415.1,700.5Z" transform="translate(-120 -85.1)"/><path class="cls-3" d="M440.8,702.8l-8-4.4c-.6,1.1-1.3,2.2-2,3.3,2.5,1.5,5,2.9,7.6,4.2a2.7,2.7,0,0,1,1.1,1,.8.8,0,0,1,0,.9,1,1,0,0,1-.8.6,2.4,2.4,0,0,1-1.5-.4c-2.6-1.3-5.1-2.8-7.6-4.3l-2.4,3.9c3,1.7,5.9,3.4,8.9,4.9a3.2,3.2,0,0,1,1.2,1,1.1,1.1,0,0,1,.1,1.1,1.5,1.5,0,0,1-.9.6,4.1,4.1,0,0,1-1.6-.4c-3.5-1.9-7-3.8-10.4-5.9a4.6,4.6,0,0,1-1.6-1.5,1.6,1.6,0,0,1,.3-1.6c2.1-3.4,4.3-6.7,6.4-10a2.2,2.2,0,0,1,.9-.8,1.1,1.1,0,0,1,1-.1,2.7,2.7,0,0,1,1.3.5c3,1.9,6.1,3.6,9.2,5.2a2.7,2.7,0,0,1,1.1,1,.9.9,0,0,1,0,1,1.2,1.2,0,0,1-.8.6A3.4,3.4,0,0,1,440.8,702.8Z" transform="translate(-120 -85.1)"/><path class="cls-3" d="M451.1,706.8c1.2,3.8,2.5,7.7,3.9,11.5l3.3-8.8a1.8,1.8,0,0,1,1-1.1,1.7,1.7,0,0,1,1.4,0,2,2,0,0,1,1.1.9,1.7,1.7,0,0,1,0,1.4c-1.4,3.9-2.7,7.8-4.1,11.8-.4,1.3-1.4,1.7-2.9,1.1l-.9-.4-.7-.7a4.1,4.1,0,0,1-.5-.9,3.6,3.6,0,0,1-.4-.9,119,119,0,0,1-3.8-11.5c-1.3,2.8-2.5,5.7-3.8,8.5-.3.5-.6.9-1.1,1a2,2,0,0,1-1.5-.2,2.5,2.5,0,0,1-1.2-1,1.6,1.6,0,0,1,.1-1.5c1.7-3.7,3.5-7.3,5.2-11a2.9,2.9,0,0,1,.7-1,2.1,2.1,0,0,1,1.1-.4,2.8,2.8,0,0,1,1.3.3,1.6,1.6,0,0,1,.8.5l.5.6.3.8A4.4,4.4,0,0,0,451.1,706.8Z" transform="translate(-120 -85.1)"/><path class="cls-3" d="M478.4,716.4l-4.3-1c-.9,3.7-1.8,7.4-2.8,11.1a1.5,1.5,0,0,1-.9,1.3,2.9,2.9,0,0,1-1.6.1,2.4,2.4,0,0,1-1.4-.9c-.4-.4-.4-.9-.2-1.6l3-11-4.2-1.2a2.6,2.6,0,0,1-1.3-.8,1,1,0,0,1-.2-1,1.1,1.1,0,0,1,.8-.8,2.7,2.7,0,0,1,1.5.1c4,1.2,8.1,2.2,12.2,3.1a3.7,3.7,0,0,1,1.4.7,1,1,0,0,1,.3,1,1.3,1.3,0,0,1-.7.9A4.2,4.2,0,0,1,478.4,716.4Z" transform="translate(-120 -85.1)"/><path class="cls-3" d="M481.1,728.6c.8-4.1,1.5-8.2,2.3-12.2a1.7,1.7,0,0,1,.8-1.4,2.2,2.2,0,0,1,1.4-.2,2.1,2.1,0,0,1,1.4.7,1.9,1.9,0,0,1,.3,1.5c-.6,4.1-1.3,8.2-1.9,12.3a1.6,1.6,0,0,1-.9,1.3,2.1,2.1,0,0,1-1.6.3,2.8,2.8,0,0,1-1.5-.8A1.9,1.9,0,0,1,481.1,728.6Z" transform="translate(-120 -85.1)"/><path class="cls-3" d="M504,731l-.9-2-8.5-.7-1.2,2a6.3,6.3,0,0,1-1.2,1.4,1.7,1.7,0,0,1-1.5.3,2.6,2.6,0,0,1-1.3-.6c-.4-.4-.6-.7-.5-1.1a1.4,1.4,0,0,1,.2-.6,2.4,2.4,0,0,1,.6-.9c2.2-3.2,4.4-6.4,6.4-9.6a3.7,3.7,0,0,1,.6-1,8.6,8.6,0,0,1,.7-1l1-.6a2.7,2.7,0,0,1,1.3-.1,2.9,2.9,0,0,1,1.4.3,2.7,2.7,0,0,1,.8.7l.6.9.5,1.3c1.5,3.4,3.2,6.9,5,10.3a4.3,4.3,0,0,1,.6,1.7,1.4,1.4,0,0,1-.6,1,2.4,2.4,0,0,1-1.5.4l-.9-.2-.6-.3a2.8,2.8,0,0,1-.5-.8A5.6,5.6,0,0,0,504,731Zm-8.1-4.9,6.2.4c-.9-2.2-1.8-4.4-2.6-6.7Z" transform="translate(-120 -85.1)"/><path class="cls-3" d="M532.1,718.1l-8.9,1,.3,3.8c2.8-.2,5.7-.5,8.5-.9a2.9,2.9,0,0,1,1.4.1.9.9,0,0,1,.6.8.8.8,0,0,1-.3.9,2.3,2.3,0,0,1-1.4.6c-2.8.4-5.7.7-8.6.9.1,1.5.3,3,.4,4.5l9.9-1.1a2.7,2.7,0,0,1,1.6.1,1.1,1.1,0,0,1,.7.8,1.3,1.3,0,0,1-.4,1,2.6,2.6,0,0,1-1.5.6c-3.9.5-7.8,1-11.8,1.2a3.4,3.4,0,0,1-2.1-.3,2.1,2.1,0,0,1-.7-1.4c-.2-4-.4-7.9-.7-11.9a3.6,3.6,0,0,1,.2-1.1,1.9,1.9,0,0,1,.8-.7l1.3-.3c3.5-.2,7-.6,10.4-1.1a2,2,0,0,1,1.4.2.8.8,0,0,1,.6.8.8.8,0,0,1-.3.9A2.3,2.3,0,0,1,532.1,718.1Z" transform="translate(-120 -85.1)"/><path class="cls-3" d="M550.4,714.5l-4.3,1.1,2.7,11.1a1.7,1.7,0,0,1-.2,1.6,2.2,2.2,0,0,1-1.4.8,2.4,2.4,0,0,1-1.7-.1,2.5,2.5,0,0,1-.9-1.3l-2.4-11.2-4.3.8a2.7,2.7,0,0,1-1.6-.1c-.3-.2-.6-.4-.6-.8a1.1,1.1,0,0,1,.3-1.1,2.6,2.6,0,0,1,1.4-.6q6.1-1.1,12.3-2.7a2.7,2.7,0,0,1,1.5-.1c.4.2.7.4.8.8a1.4,1.4,0,0,1-.2,1.1A2.6,2.6,0,0,1,550.4,714.5Z" transform="translate(-120 -85.1)"/><path class="cls-3" d="M564.2,709.2c2.7,2.8,5.5,5.5,8.3,8.1.1-3.9.1-7.7,0-11.6v-1.3a1.1,1.1,0,0,1,.3-.7,2.2,2.2,0,0,1,.9-.7,1.6,1.6,0,0,1,.9-.3l.9.2.5.5c.1.2.1.4.2.5v1.2c.1,3.8,0,7.6-.2,11.4v1.3a3.6,3.6,0,0,1-.2,1.1,3,3,0,0,1-.7,1,3.6,3.6,0,0,1-1.2.8,3.1,3.1,0,0,1-1.5.3,2.2,2.2,0,0,1-1.2-.2l-1-.6-.9-.9c-2.8-2.5-5.6-5.2-8.2-7.9l-.4-.4a1,1,0,0,1-.4-.5c-.2-.1-.2-.3-.3-.4a1.7,1.7,0,0,1,.2-1.2,1.5,1.5,0,0,1,1.1-.8,1.8,1.8,0,0,1,1.6-.1A6.4,6.4,0,0,1,564.2,709.2Z" transform="translate(-120 -85.1)"/><path class="cls-3" d="M585.1,713.4c-1.9-3.7-3.8-7.4-5.8-11a1.8,1.8,0,0,1-.1-1.6,2.1,2.1,0,0,1,1-1.1,2,2,0,0,1,1.5-.2,1.7,1.7,0,0,1,1.2,1c2,3.6,4,7.2,6.1,10.8a1.8,1.8,0,0,1,.1,1.6,2.8,2.8,0,0,1-2.8,1.5A1.7,1.7,0,0,1,585.1,713.4Z" transform="translate(-120 -85.1)"/><path class="cls-3" d="M595.8,701.4l-1.3.8,2.7,4.3a1.6,1.6,0,0,1,.3,1.6,3.1,3.1,0,0,1-1.1,1.2,2.3,2.3,0,0,1-1.7.4,1.8,1.8,0,0,1-1.2-.9l-6.3-10.5a1.7,1.7,0,0,1-.2-1.5,2.5,2.5,0,0,1,1.3-1.4c1.9-1.2,3.7-2.3,5.5-3.6l2-1.2a5.6,5.6,0,0,1,1.6-.7l1.9-.3a4.7,4.7,0,0,1,1.7.4,3.5,3.5,0,0,1,1.3,1.1,3.3,3.3,0,0,1,.6,3,7.5,7.5,0,0,1-2.3,3.6,10.1,10.1,0,0,1,2.5-.2l2.7.4a10.3,10.3,0,0,1,2.1.7c.6.2.9.4,1,.6s.2.4.2.6a3.2,3.2,0,0,1-.3.9,6,6,0,0,1-.8.8,2.1,2.1,0,0,1-1.2.5,2.1,2.1,0,0,1-1.1,0l-1.5-.3-2.6-.7-2.4-.6a4.4,4.4,0,0,0-1.7.2A5.1,5.1,0,0,0,595.8,701.4Zm-1.7-6.9-3.2,2.1,2.4,3.7,3.1-2.1a12.6,12.6,0,0,0,2-1.6,3,3,0,0,0,.9-1.5,1.6,1.6,0,0,0-.3-1.3,1.4,1.4,0,0,0-1-.7,3.3,3.3,0,0,0-1.4,0Z" transform="translate(-120 -85.1)"/><path class="cls-3" d="M613.6,679.3l-3.4,3.1,7.6,8.5a1.7,1.7,0,0,1,.5,1.6,2.4,2.4,0,0,1-.9,1.4,2.6,2.6,0,0,1-1.5.7,1.9,1.9,0,0,1-1.5-.7l-7.3-8.8-3.5,2.9a2.9,2.9,0,0,1-1.5.6,1,1,0,0,1-1-.4,1.4,1.4,0,0,1-.2-1.1,3.5,3.5,0,0,1,1-1.2c3.4-2.7,6.7-5.5,9.9-8.6a3.4,3.4,0,0,1,1.4-.8,1,1,0,0,1,1,.3,1.1,1.1,0,0,1,.3,1.1A3.3,3.3,0,0,1,613.6,679.3Z" transform="translate(-120 -85.1)"/><path class="cls-3" d="M621.8,680.4l-5.4-5.3a2.2,2.2,0,0,1-.6-1.4,2.4,2.4,0,0,1,2.1-2.2,1.6,1.6,0,0,1,1.4.5l5.7,5.3a5.4,5.4,0,0,0,1.9,1.3,2.8,2.8,0,0,0,2-.2,7.9,7.9,0,0,0,2.4-2,5.4,5.4,0,0,0,1.7-3.5,4.3,4.3,0,0,0-1.6-2.8l-6.1-5a1.7,1.7,0,0,1-.7-1.4,2.3,2.3,0,0,1,.5-1.5,2.4,2.4,0,0,1,1.4-.9,1.7,1.7,0,0,1,1.5.4l6,4.7a8.8,8.8,0,0,1,2.1,2.3,5.4,5.4,0,0,1,.5,2.9,8,8,0,0,1-1,3.1,14.1,14.1,0,0,1-2.2,3.2,22.6,22.6,0,0,1-3.3,3.1,8,8,0,0,1-3,1.4,4.2,4.2,0,0,1-2.7-.2A6.8,6.8,0,0,1,621.8,680.4Z" transform="translate(-120 -85.1)"/><path class="cls-3" d="M639.4,646.3c-.8,1.4-1.6,2.8-2.5,4.2l9.7,6.2a2,2,0,0,1,.9,1.3,2.9,2.9,0,0,1-.6,1.7,2.5,2.5,0,0,1-1.3,1.2,1.8,1.8,0,0,1-1.6-.2l-9.5-6.5-2.7,4a2.6,2.6,0,0,1-1.3,1.1.9.9,0,0,1-1-.1,1,1,0,0,1-.5-1,3.1,3.1,0,0,1,.7-1.6c2.6-3.7,5.1-7.6,7.5-11.6a2.5,2.5,0,0,1,1.1-1.3,1.4,1.4,0,0,1,1.1-.1,1.1,1.1,0,0,1,.6,1A3.5,3.5,0,0,1,639.4,646.3Z" transform="translate(-120 -85.1)"/><path class="cls-3" d="M648.3,627.9c-1.3,3.3-2.8,6.5-4.3,9.6l3.4,1.7c1.5-2.9,2.8-5.9,4.1-9a3.9,3.9,0,0,1,1-1.4.9.9,0,0,1,1-.1,1,1,0,0,1,.6.8,2.9,2.9,0,0,1-.3,1.7c-1.4,3.1-2.8,6.2-4.2,9.1,1.3.7,2.6,1.4,4,2,1.7-3.4,3.3-6.9,4.8-10.6a3.6,3.6,0,0,1,1-1.5.9.9,0,0,1,1.1-.2q.4.2.6.9a3.3,3.3,0,0,1-.4,1.8c-1.8,4.3-3.7,8.5-5.7,12.5a4.5,4.5,0,0,1-1.5,1.9,1.7,1.7,0,0,1-1.7-.1l-10.4-5.7c-.4-.2-.7-.4-.8-.8a1.8,1.8,0,0,1-.2-1.1,5.3,5.3,0,0,1,.6-1.4c1.8-3.6,3.5-7.2,5-11a2.7,2.7,0,0,1,1-1.4,1,1,0,0,1,1-.2.9.9,0,0,1,.6.9A2.5,2.5,0,0,1,648.3,627.9Z" transform="translate(-120 -85.1)"/></g><g id="Layer_3" data-name="Layer 3"><polygon class="cls-2" points="611.5 669.8 620 659.2 580.1 624.9 546.6 667.5 611.5 669.8"/><polygon class="cls-4" points="609.5 671.6 621.4 658.7 580.6 625.1 542.5 672 609.5 671.6"/><path class="cls-4" d="M685.9,757.1,706.5,732c-8.2,0-12.6-4.2-14.7-11l-29.4,36.1Z" transform="translate(-120 -85.1)"/><polygon class="cls-2" points="207.4 625.1 245.5 672 175.1 668.6 166.5 658.7 207.4 625.1"/><polygon class="cls-4" points="178.5 671.6 166.5 658.7 207.4 625.1 245.5 672 178.5 671.6"/><path class="cls-4" d="M342.2,757.1,321.6,732c8.2,0,12.6-4.2,14.8-11l29.3,36.1Z" transform="translate(-120 -85.1)"/><polygon class="cls-1" points="169.7 665.8 618.4 665.8 557.2 732.9 226.9 732.9 169.7 665.8"/><polygon class="cls-2" points="183.3 671.6 606.1 671.6 557.2 726.1 226.9 726.1 183.3 671.6"/><polygon class="cls-1" points="595.2 675.7 555.4 721 230 721 193.2 675.7 595.2 675.7"/><path class="cls-5" d="M421.2,787.6a7.4,7.4,0,0,1-.6,2.7,12.2,12.2,0,0,1-2,2.8,8,8,0,0,1-3.3,2.2,11.3,11.3,0,0,1-4.7.9,14.5,14.5,0,0,1-3.7-.4,7.9,7.9,0,0,1-3-1.2,8.2,8.2,0,0,1-2.5-2.1,13.4,13.4,0,0,1-1.8-2.8,15.1,15.1,0,0,1-1.1-3.2,20.2,20.2,0,0,1-.3-3.6,16.4,16.4,0,0,1,.9-5.6,12.9,12.9,0,0,1,2.6-4.2,11.6,11.6,0,0,1,3.9-2.6,13.7,13.7,0,0,1,4.9-.9,12,12,0,0,1,5.5,1.2,10,10,0,0,1,3.8,3.1,5.9,5.9,0,0,1,1.3,3.5,2,2,0,0,1-.6,1.5,2.1,2.1,0,0,1-1.6.7,2.4,2.4,0,0,1-1.5-.4,10.1,10.1,0,0,1-1.1-1.7,7.5,7.5,0,0,0-2.4-2.8,5.3,5.3,0,0,0-3.4-1,6.3,6.3,0,0,0-5.1,2.4c-1.3,1.7-1.9,4-1.9,7a14.1,14.1,0,0,0,.8,5,7.3,7.3,0,0,0,2.4,3,6.9,6.9,0,0,0,3.6,1,6,6,0,0,0,3.8-1.2,6.1,6.1,0,0,0,2.4-3.2,5.4,5.4,0,0,1,.8-1.7,2,2,0,0,1,1.6-.6,2.5,2.5,0,0,1,1.6.6A2.4,2.4,0,0,1,421.2,787.6Z" transform="translate(-120 -85.1)"/><path class="cls-5" d="M444.4,769.6a13.5,13.5,0,0,1,6.9,1.6,10.6,10.6,0,0,1,4.3,4.6,15.4,15.4,0,0,1,1.5,7,19.2,19.2,0,0,1-.8,5.5,12.4,12.4,0,0,1-2.4,4.2,11.5,11.5,0,0,1-4,2.8,15.3,15.3,0,0,1-5.4.9,13.3,13.3,0,0,1-5.4-1,10.1,10.1,0,0,1-4-2.7,10.7,10.7,0,0,1-2.4-4.3,16.1,16.1,0,0,1-.8-5.4,15.3,15.3,0,0,1,.8-5.4,12.2,12.2,0,0,1,2.5-4.3,11.6,11.6,0,0,1,3.9-2.6A14.7,14.7,0,0,1,444.4,769.6Zm7.4,13.2a12.2,12.2,0,0,0-.9-4.9,6.7,6.7,0,0,0-2.6-3.1,7.1,7.1,0,0,0-3.9-1.1,6.8,6.8,0,0,0-2.9.6,7.6,7.6,0,0,0-2.3,1.7,9.9,9.9,0,0,0-1.5,2.9,11.8,11.8,0,0,0-.6,3.9,12.5,12.5,0,0,0,.6,4,8.1,8.1,0,0,0,1.6,2.9,5.8,5.8,0,0,0,2.3,1.8,6.8,6.8,0,0,0,2.9.6,7.5,7.5,0,0,0,3.6-1,6.3,6.3,0,0,0,2.7-3.1A11.8,11.8,0,0,0,451.8,782.8Z" transform="translate(-120 -85.1)"/><path class="cls-5" d="M473.9,772.7v18.8h10.6a2.7,2.7,0,0,1,1.9.6,1.8,1.8,0,0,1,.7,1.5,1.9,1.9,0,0,1-.7,1.6,2.7,2.7,0,0,1-1.9.6H471.9a3.4,3.4,0,0,1-2.5-.8,3.3,3.3,0,0,1-.7-2.4V772.7a3.6,3.6,0,0,1,.7-2.4,2.3,2.3,0,0,1,1.8-.7,2.7,2.7,0,0,1,2,.7A4.3,4.3,0,0,1,473.9,772.7Z" transform="translate(-120 -85.1)"/><path class="cls-5" d="M507.3,769.6a13.4,13.4,0,0,1,6.8,1.6,10.3,10.3,0,0,1,4.4,4.6,15.4,15.4,0,0,1,1.5,7,19.2,19.2,0,0,1-.8,5.5,12.7,12.7,0,0,1-2.5,4.2,11.1,11.1,0,0,1-3.9,2.8,15.3,15.3,0,0,1-5.4.9,13.5,13.5,0,0,1-5.5-1,9.8,9.8,0,0,1-3.9-2.7,12.2,12.2,0,0,1-2.5-4.3,19.1,19.1,0,0,1-.8-5.4,15.3,15.3,0,0,1,.9-5.4,12,12,0,0,1,2.4-4.3,11.1,11.1,0,0,1,4-2.6A14.4,14.4,0,0,1,507.3,769.6Zm7.4,13.2a12.2,12.2,0,0,0-.9-4.9,6.9,6.9,0,0,0-2.7-3.1,7,7,0,0,0-3.8-1.1,6.8,6.8,0,0,0-5.2,2.3,6.7,6.7,0,0,0-1.5,2.9,11.8,11.8,0,0,0-.6,3.9,12.5,12.5,0,0,0,.6,4,8,8,0,0,0,1.5,2.9,6.9,6.9,0,0,0,2.4,1.8,6.4,6.4,0,0,0,2.8.6,6.8,6.8,0,0,0,6.4-4.1A13.4,13.4,0,0,0,514.7,782.8Z" transform="translate(-120 -85.1)"/><path class="cls-5" d="M540.3,791.9l-4.1-16.4v17.8a3.1,3.1,0,0,1-.7,2.2,2.4,2.4,0,0,1-3.4,0,3.1,3.1,0,0,1-.7-2.2V772.9a2.5,2.5,0,0,1,.9-2.3,4.3,4.3,0,0,1,2.4-.6h1.6a5.8,5.8,0,0,1,2.1.3,1.8,1.8,0,0,1,1,.9c.2.5.4,1.2.7,2.2l3.7,14.2,3.8-14.2a11.5,11.5,0,0,1,.7-2.2,1.5,1.5,0,0,1,1-.9,5.1,5.1,0,0,1,2.1-.3H553a4.3,4.3,0,0,1,2.4.6,2.5,2.5,0,0,1,.9,2.3v20.4a3.6,3.6,0,0,1-.7,2.2,2.1,2.1,0,0,1-1.8.7,2.2,2.2,0,0,1-1.7-.7,3.6,3.6,0,0,1-.6-2.2V775.5l-4.2,16.4c-.2,1-.5,1.8-.6,2.3a3.3,3.3,0,0,1-1,1.4,2.7,2.7,0,0,1-1.9.6,2.4,2.4,0,0,1-1.5-.4,3.2,3.2,0,0,1-1-1l-.6-1.4A8.3,8.3,0,0,0,540.3,791.9Z" transform="translate(-120 -85.1)"/><path class="cls-5" d="M579.8,795.8h-7.9a2.7,2.7,0,0,1-3.1-3.2V773.2a3.6,3.6,0,0,1,.7-2.5,3.3,3.3,0,0,1,2.4-.7h8.4l3.2.2a8.5,8.5,0,0,1,2.4.9,5.4,5.4,0,0,1,1.6,1.4,4.9,4.9,0,0,1,1.1,1.8,5.4,5.4,0,0,1,.4,2.2c0,2.5-1.3,4.4-3.9,5.6q5.1,1.6,5.1,6.3a7.1,7.1,0,0,1-1.1,3.9,6.9,6.9,0,0,1-3,2.6l-2.7.7ZM574,773.9v6.7h4.8a8,8,0,0,0,3-.4,2.7,2.7,0,0,0,1.6-1.4,3.1,3.1,0,0,0,.5-1.7,2.4,2.4,0,0,0-1.4-2.5,9.8,9.8,0,0,0-4.3-.7Zm5.4,10.4H574v7.5h5.6c3.5,0,5.3-1.2,5.3-3.8a3.1,3.1,0,0,0-1.4-2.8A7.3,7.3,0,0,0,579.4,784.3Z" transform="translate(-120 -85.1)"/><path class="cls-5" d="M613.2,769.6a13.5,13.5,0,0,1,6.9,1.6,10.9,10.9,0,0,1,4.4,4.6,15.4,15.4,0,0,1,1.5,7,16.3,16.3,0,0,1-.9,5.5,11,11,0,0,1-2.4,4.2,12.1,12.1,0,0,1-3.9,2.8,15.3,15.3,0,0,1-5.4.9,13.5,13.5,0,0,1-5.5-1,10.1,10.1,0,0,1-4-2.7,13.7,13.7,0,0,1-2.4-4.3,19.1,19.1,0,0,1-.8-5.4,15.3,15.3,0,0,1,.9-5.4,12,12,0,0,1,2.4-4.3,11.1,11.1,0,0,1,4-2.6A14.2,14.2,0,0,1,613.2,769.6Zm7.5,13.2a12.2,12.2,0,0,0-.9-4.9,6.9,6.9,0,0,0-2.7-3.1,7.1,7.1,0,0,0-3.9-1.1,6.4,6.4,0,0,0-2.8.6,6.6,6.6,0,0,0-2.3,1.7,6.7,6.7,0,0,0-1.5,2.9,11.8,11.8,0,0,0-.6,3.9,12.5,12.5,0,0,0,.6,4,8,8,0,0,0,1.5,2.9,7.6,7.6,0,0,0,2.3,1.8,7.2,7.2,0,0,0,2.9.6,6.8,6.8,0,0,0,6.4-4.1A13.4,13.4,0,0,0,620.7,782.8Z" transform="translate(-120 -85.1)"/></g><g id="Layer_4" data-name="Layer 4"><path class="cls-1" d="M380.4,456H638.8Q664,630.4,514.7,695,362.3,643.8,380.4,456Z" transform="translate(-120 -85.1)"/><path class="cls-2" d="M384.5,460.1H635.2q24.6,164.4-120.5,230.8Q367.4,639.8,384.5,460.1Z" transform="translate(-120 -85.1)"/><path class="cls-1" d="M433.1,553.6l-3.7,69.5,58.7-.5c-3.5,8.8-8.2,15.1-14.2,22.3,1,3.6,3.2,5.1,6.1,5.1,7-8.9,11.3-16.7,15.8-25.7A82,82,0,0,1,511,641.6l1,25.8a5.5,5.5,0,0,0,5.3,4.1,8.6,8.6,0,0,0,4.6-5.6c.4-6.6.7-15.4.8-25.3l14-19.7A258.4,258.4,0,0,1,551,645.4a6.3,6.3,0,0,0,6.6.5c1.4-1.3,1.8-3.2,1.3-5.5a89,89,0,0,1-14.1-21.5l51.6,2.5-4.6-72a222.6,222.6,0,0,1-24.5-24c9-4.7,22.9,6.3,24.2,5.1-.9-10.6,1.2-14.4,11.5-8.5,6.1,1.6,10.7.7,12.8-4.7-1.6-8,2.6-12.4,8.3-17.2,3.1-6.7,1.1-13.8-10.8-17.6-3.3-2-7.3-6.7-11.8-13.2-6.7-1.6-11.2,2.1-13.8,10.7-6.2-1.1-10.1-1.5-15-.3-4.5,7.1-4.3,14.1,1.2,18.7-4.2,5.2-10,9.5-16.3,13.6a109.7,109.7,0,0,1-27.6,0,17,17,0,0,0-6.1,7.3,3.5,3.5,0,0,1-4.1-1,11.7,11.7,0,0,1,.5-6.3,12.8,12.8,0,0,1,5.9-1.9c3.4-4.8,6.7-8.7,9.4-9.7,6.7-3.7,7.9-9.4,2.6-17.4-2.8-1.3-5.1-3.8-6.1-10.2-4.3-8.3-10.8-6.5-18.1-.5-3.1-.4-6.4-2.4-12.1-3-3.8,1.7-5.1,5-5.1,9.1-7.6,4.1-10,10.1-5,16.3s10.6,8.5,14.2,8.1,4.2,4.9,4,17c-5.6.9-11.6-1.5-18.3-7.8a47.7,47.7,0,0,0-15.3,4.7c-10-3-20.2-8.3-30.5-16.1,5.1-7,3.5-12.7-3.7-14.5-1.8-.4-3.2-2.6-4.1-7.7-5.6-6.7-11.4-4.5-17.4,3.6-13.4-3.5-18.5.3-15.2,9.1-3.3,14.6-2.6,24.1,7.1,23.1,6.8-.3,12.9.9,17.3-.3a33.2,33.2,0,0,1-7.1,18.7c-.4,3.3.6,5.4,2.5,6.6,7.2-3.3,11.1-11.1,12.3-22.5,15.6-1.5,25.4.5,30.6,5.3-7.1,2.4-15,2.2-23.5,0-1.5,4.9-.9,7.7,2.1,8.5a20.9,20.9,0,0,0,10.7-2.5Z" transform="translate(-120 -85.1)"/><path class="cls-2" d="M421.3,487.9c-4-3-7.5-2.8-10.6,0a4.8,4.8,0,0,0,.3,5.4c-1.1,7-1.4,12.4-.3,14.9,7.2.8,10.5-.1,10.6-1.4h9.9c1.1,2.3,8,4.4,13.8,6s8.3,1.1,10.9,0c.3-2.9-8.2-6.7-16.5-10.6.6-1.2.5-2.9-.4-5.2,1.6.3,2.2-1.1,2-4a9.3,9.3,0,0,0-5.4-3c-.8-2.2-1.5-4.5-2.3-6.9s-3.7-2.7-6.8-1.1A27.7,27.7,0,0,1,421.3,487.9Z" transform="translate(-120 -85.1)"/><path class="cls-1" d="M417.6,496.6a12.8,12.8,0,0,1,8.4-6c2.5.4,4.2,1.8,4.2,5s-1.7,4.1-4.7,5.3S419.1,501.2,417.6,496.6Z" transform="translate(-120 -85.1)"/><path class="cls-2" d="M503.5,486.5c-1.4-8.7,1.6-12.3,10.4-9.2,8.9-4.1,14-2.6,13.2,3.8,9.8,7.2,9.5,11.7,3,14.5l-6.3,8.4c-2.7,1.1-5.3.6-7.9-1l-7.3-4.6c-5.4-.2-8.4-2.8-9.9-6.8A9.6,9.6,0,0,1,503.5,486.5Z" transform="translate(-120 -85.1)"/><path class="cls-1" d="M518.5,482.8a26.7,26.7,0,0,0-7.2,7.1c.8,4.2,3,7,7.2,6.8,4.3,1.3,6.9.8,7.8-1.9-.8-.7-1.4-3.4-4.1-10C522,483.9,520.6,483.2,518.5,482.8Z" transform="translate(-120 -85.1)"/><path class="cls-2" d="M580.5,503c-3.4-6.8-5-11.8-3.8-14,3.4-2.6,7.4-3.8,11-1.9,3.3-1.8,4.2-6.7,6.3-7.6a4,4,0,0,1,6.5.6c6.3,6.9,9.9,10,13.8,9.7,5.6,3.7.2,9.3-3.5,13.8-.1,8.2-1.9,13-6,13.3s-6.3-1.7-9.3-4.1c-5,2.3-10,4.3-14.2,3.2S577.9,509.4,580.5,503Z" transform="translate(-120 -85.1)"/><path class="cls-1" d="M597.3,492c-5.4,1.2-8.2,4-8.8,8.3,1.5,2.4,4.2,3.9,8.8,3.8s7-.6,7.4-4.6A15.3,15.3,0,0,0,597.3,492Z" transform="translate(-120 -85.1)"/><path class="cls-2" d="M566.9,512q-5.7,2.6-7.5,7.2c1.4,1.7,3.8,2.3,7.5,1.1S572,515.1,566.9,512Z" transform="translate(-120 -85.1)"/><path class="cls-2" d="M458.1,531.4c13.9-4.8,33.5-3.3,50.1,5.8v67.6c-19.3-4.5-38.3-8.7-53-5.2Z" transform="translate(-120 -85.1)"/><path class="cls-2" d="M513,536.7l2,67.5c13.6-5.4,32.6-6.6,52.8-6.8l-2.9-65.6C544.9,529.9,525,528.1,513,536.7Z" transform="translate(-120 -85.1)"/><path class="cls-1" d="M472.4,560.7h-5.2V564h4.3l.9.2a1.1,1.1,0,0,1,.3.8.9.9,0,0,1-.3.7l-.9.2h-4.3v4.3a2.1,2.1,0,0,1-.3,1.2,1.8,1.8,0,0,1-1,.4,1.5,1.5,0,0,1-.9-.4,2.1,2.1,0,0,1-.4-1.2v-9.9a3,3,0,0,1,.2-1,1.2,1.2,0,0,1,.5-.5h7.1l.9.2a1.1,1.1,0,0,1,.3.8.9.9,0,0,1-.3.7A1.2,1.2,0,0,1,472.4,560.7Z" transform="translate(-120 -85.1)"/><path class="cls-1" d="M475.8,570.2V560a2.1,2.1,0,0,1,.4-1.2,1.5,1.5,0,0,1,.9-.4,1.8,1.8,0,0,1,1,.4,2.1,2.1,0,0,1,.4,1.2v10.2a2.1,2.1,0,0,1-.4,1.2,1.8,1.8,0,0,1-1,.4,1.5,1.5,0,0,1-.9-.4A2.1,2.1,0,0,1,475.8,570.2Z" transform="translate(-120 -85.1)"/><path class="cls-1" d="M489.8,570.1l-.6-1.6h-5.3l-.6,1.6a3.1,3.1,0,0,1-.6,1.3.8.8,0,0,1-.8.4,1.1,1.1,0,0,1-.9-.4,1.2,1.2,0,0,1-.4-.8c0-.2.1-.4.1-.6a2.4,2.4,0,0,0,.3-.7l3.3-8.4.3-.9a5.6,5.6,0,0,1,.5-.8,1.2,1.2,0,0,1,.5-.5,1.6,1.6,0,0,1,.9-.3,1.7,1.7,0,0,1,1,.3,1.2,1.2,0,0,1,.5.5,1.6,1.6,0,0,1,.4.7,5.1,5.1,0,0,1,.4,1l3.4,8.3a6.3,6.3,0,0,1,.4,1.4,1,1,0,0,1-.4.8,1.3,1.3,0,0,1-.9.4h-.5l-.4-.3-.3-.6Zm-5.2-3.6h3.9l-2-5.3Z" transform="translate(-120 -85.1)"/><path class="cls-1" d="M501.5,560.8h-2.9v9.4a2.1,2.1,0,0,1-.3,1.2,1.8,1.8,0,0,1-1,.4,1.3,1.3,0,0,1-.9-.4,1.6,1.6,0,0,1-.4-1.2v-9.4h-2.8a1.3,1.3,0,0,1-1-.3,1,1,0,0,1-.4-.8,1,1,0,0,1,.4-.7,1.3,1.3,0,0,1,1-.3h8.3a1.7,1.7,0,0,1,1,.3.9.9,0,0,1,.3.7,1,1,0,0,1-.3.8A1.7,1.7,0,0,1,501.5,560.8Z" transform="translate(-120 -85.1)"/><path class="cls-1" d="M525.7,559.3v9.4H531a1.2,1.2,0,0,1,.9.3.9.9,0,0,1,.4.8.8.8,0,0,1-.4.7,1.2,1.2,0,0,1-.9.3h-6.3a1.3,1.3,0,0,1-1.6-1.6v-9.9a2.1,2.1,0,0,1,.3-1.2,1.8,1.8,0,0,1,1-.4,1.5,1.5,0,0,1,.9.4A2.1,2.1,0,0,1,525.7,559.3Z" transform="translate(-120 -85.1)"/><path class="cls-1" d="M533.3,565.5v-6.2a2.1,2.1,0,0,1,.3-1.2,1.8,1.8,0,0,1,1-.4,1.3,1.3,0,0,1,.9.4,1.6,1.6,0,0,1,.4,1.2v6.4a9,9,0,0,0,.2,1.8,3.1,3.1,0,0,0,.9,1.1,3.9,3.9,0,0,0,1.7.4,2.8,2.8,0,0,0,2.2-.8,4.4,4.4,0,0,0,.6-2.5v-6.4a1.6,1.6,0,0,1,.4-1.2,1.3,1.3,0,0,1,.9-.4,1.8,1.8,0,0,1,1,.4,2.1,2.1,0,0,1,.3,1.2v6.2a8.5,8.5,0,0,1-.3,2.5,3.4,3.4,0,0,1-1.1,1.8,5.4,5.4,0,0,1-1.6,1,7.3,7.3,0,0,1-2.2.3,10.1,10.1,0,0,1-2.6-.4,3.9,3.9,0,0,1-2.7-2.7A9,9,0,0,1,533.3,565.5Z" transform="translate(-120 -85.1)"/><path class="cls-1" d="M546.7,568.3l2.8-4.2-2.4-3.7a9.3,9.3,0,0,1-.5-1,1.9,1.9,0,0,1-.2-.7.8.8,0,0,1,.4-.7,1,1,0,0,1,.8-.3.9.9,0,0,1,.8.4l.8,1.1,2,3.2,2-3.2.5-.6.3-.5.4-.3h.5a1.1,1.1,0,0,1,.8.3,1.1,1.1,0,0,1,.3.7,2.7,2.7,0,0,1-.7,1.6l-2.5,3.8,2.7,4.2a3.1,3.1,0,0,1,.5,1,.7.7,0,0,1,.2.6,1.3,1.3,0,0,1-.1.6,1,1,0,0,1-.5.4.8.8,0,0,1-.6.2l-.6-.2a.8.8,0,0,1-.4-.4l-.6-.9-2.3-3.5-2.4,3.6-.4.7c-.1.1-.1.2-.3.3l-.4.3h-.5a1.1,1.1,0,0,1-.8-.3,1.2,1.2,0,0,1-.3-.9A3,3,0,0,1,546.7,568.3Z" transform="translate(-120 -85.1)"/></g><g id="Layer_5" data-name="Layer 5"><polygon class="cls-1" points="311.7 349.4 321.7 364 339.3 364 328.3 349.4 311.7 349.4"/><polygon class="cls-1" points="332.9 349.4 342.9 364 360.5 364 349.5 349.4 332.9 349.4"/><polygon class="cls-1" points="354.9 349.4 364.9 364 382.5 364 371.5 349.4 354.9 349.4"/><polygon class="cls-1" points="376.7 349.4 386.6 364 404.3 364 393.3 349.4 376.7 349.4"/><polygon class="cls-1" points="398.8 349.4 408.8 364 426.4 364 415.4 349.4 398.8 349.4"/><polygon class="cls-1" points="420.4 349.4 430.4 364 448 364 437 349.4 420.4 349.4"/><polygon class="cls-1" points="442.6 349.4 452.5 364 470.1 364 459.2 349.4 442.6 349.4"/><path class="cls-1" d="M465.4,432.7a58.7,58.7,0,0,0,19.4,1.6c3.7-2,4.1-7.4,3.1-14.3,1.9,7.5,4.4,12.9,8.2,14.3,6,.5,11.8.5,16.9-1s3.3-7.3,0-12.3c-3.3-2.2-7-6.9-10.8-13.3a9.5,9.5,0,0,1,6,0c4.5,3.5,9.9,3.7,15.7,2.3a59.8,59.8,0,0,1-3.3,16.4c.1,6.4,3.3,8.9,9.2,7.9,8.6.5,13.8-.6,13-4.4V420c3.9,7.6,6.9,12.3,8.9,14.3a19.3,19.3,0,0,0,16.1,0c4.2-1.5,2.8-7.1-1-14.6-3.1-3.8-4.9-10.6-6.1-18.6,4.9,1.2,7.4-1.4,5.8-10.5-2.1-31.2-18.8-44.3-44.1-46.5-9,2.6-17.5,4.1-25.1,3.6-9.8-5.2-17.5-4.6-23.4,1.3-7.4-9.6-16.1-10.5-26.3-.8-3.7,6.3-7.4,10.8-11,12.8-9,9.2-10.1,20.2-9,31.7-4.2,1.9-11.9,1.5-22.2-.3,4.7,7.1,10.7,12.7,22.5,11-.7,15.3,8.6,22.1,24,23.5,5-1.8,7.2-6.8,6.9-14.6-2.1-.9-6,.4-8.9,3.1a11,11,0,0,1-5.2-3.8c-1.3-2.3-2-6.9-2.3-13.3,2.5-.2,5-1.4,7.7-4.1,5.3.9,10.8-.6,16.6-3.8,5,3.7,8.5,7.8,9.4,12.2C465.5,412.5,463.1,422.6,465.4,432.7Z" transform="translate(-120 -85.1)"/><path class="cls-2" d="M445.8,392.7c-3.4,4.1-8.7,6.6-15.6,7.9-8.5-.3-13.2-1.9-16.3-4,5.7,0,11.3.4,15.9,0C437.2,393,443.2,389.3,445.8,392.7Z" transform="translate(-120 -85.1)"/><path class="cls-2" d="M453.8,417c-.2,2.5-1.1,4.9-3.9,6-10.1-.1-16.8-6.3-19.7-19.6l7.7-2c.4,4.4,1.5,8.8,5.3,12.7S451.6,416.8,453.8,417Z" transform="translate(-120 -85.1)"/><path class="cls-2" d="M469.9,387.3c2.8-2.8,3.3-7.4,4.4-10.1,2.7,1.9,5,3.8,6.2,5.8a6.7,6.7,0,0,1,4.4-2.4c9.9,7.7,13.3,14.5,16.4,21.2-2.6,6.2-7.7,10.9-14.9,14.2-2.6,3.6-3.5,8.5-2.8,14.6-6.3,1.4-11.8,1.3-16.3-.6,1.5-11.4,4.7-18.5,9.4-21.7,1.9-3.4,1.6-7.6.1-12.7C474.4,393,472.5,390,469.9,387.3Z" transform="translate(-120 -85.1)"/><path class="cls-2" d="M499.8,410.2l-9,6c1.1,5.5,2.8,10.4,5.6,14.4,5.5,1.3,10.8,1.6,15.6-.5C512.2,423.7,506.3,417.9,499.8,410.2Z" transform="translate(-120 -85.1)"/><path class="cls-2" d="M526.8,409.4c-.2,8.5-.8,12.6-2.9,16.1-.6,3.9.7,5.8,3.6,6.1h9.8c2.1-.4,3.2-2.1,3.4-5a18.8,18.8,0,0,1,.6-10.3,12.7,12.7,0,0,0-5.3-6.9Z" transform="translate(-120 -85.1)"/><path class="cls-2" d="M553.9,431c1.1,1.2,5.2,1.2,11.2.6a8.1,8.1,0,0,0,0-6.3c-1.6-2.4-3.4-6.3-6.3-10.8a97.9,97.9,0,0,1-2-22.9c2.6,0,4.5,1.5,6.1,4,.6-13.4-4.6-25.6-9-31.4-6-10.2-17.4-15.4-33.6-16.1a68.1,68.1,0,0,0-24.2,3.5c-1.2,12.1-9.7,20.5-9.7,25.6,9.4,8,17.7,27.2,25.6,29.1h24.5A96.3,96.3,0,0,1,553.9,431Z" transform="translate(-120 -85.1)"/><path class="cls-2" d="M493.1,350.6c0,14.4-10.1,19.7-9.6,27.6-3.3.5-6.1-1.2-8.5-5.6a21.1,21.1,0,0,1-4.8,4.6c1.4,4.6-.8,7.8-6.1,10s-12.6,4.6-16.7,3.3a10.2,10.2,0,0,1,3.8-5,12.8,12.8,0,0,0-4.5-3.6c-3.7,6.4-8.9,10.1-15.8,10.7-1-8.9.2-17.6,5.3-25.4,1-4,9.9-9.8,14.2-15.7,5-8.9,17.6-9.1,21.1,1.8,2,1.5,3.2.8,4.5-1s2-3,4.1-4.2C486.6,346.4,490.8,347.4,493.1,350.6Z" transform="translate(-120 -85.1)"/><path class="cls-1" d="M450.1,366.7c-5.3-.3-8.5,2.1-8.1,8.2a25.5,25.5,0,0,0,7.2.5Q452.4,371.1,450.1,366.7Z" transform="translate(-120 -85.1)"/></g><g id="Layer_6" data-name="Layer 6"><polygon class="cls-1" points="375.6 235.9 375.6 259.9 401.2 259.9 401.2 235.1 416.9 235.1 416.9 211 400.8 211 400.8 193.7 375.6 193.7 375.6 211 358.6 211.1 358.6 235.9 375.6 235.9"/><polygon class="cls-2" points="381.4 200 394.9 200 394.9 217.1 412 217.1 412.1 230.3 394.7 230.4 394.7 254.4 381.4 254.4 381.4 230.4 364.3 230.4 364.3 217.3 381.4 217.3 381.4 200"/><polygon class="cls-1" points="366.4 212.6 315.6 190.4 310.6 193.7 360.7 215.6 366.4 212.6"/><polygon class="cls-1" points="360.9 218.9 235.1 218.9 236.9 223.8 360.9 223.8 360.9 218.9"/><polygon class="cls-1" points="361.7 228.2 252.3 262.3 248.7 259.9 360.9 225.1 361.7 228.2"/><polygon class="cls-1" points="366.4 234.9 266.6 287.8 263 287.8 263 284.6 364.3 232.6 366.4 234.9"/><path class="cls-1" d="M519.1,294.8c.5,0,57.2-26.9,57.2-26.9l6.3,1-61.1,28.8Z" transform="translate(-120 -85.1)"/><polygon class="cls-1" points="415.1 214.3 482 193.7 483.4 197.7 415.1 217 415.1 214.3"/><rect class="cls-1" x="415.1" y="222.4" width="142.1" height="4.33"/><polygon class="cls-1" points="415.1 229.1 531.2 280.8 530.7 283.7 526 282.9 414.3 232.6 415.1 229.1"/><polygon class="cls-1" points="407.1 233.7 505.4 309.6 506.2 312.8 502.5 312.8 399.1 232.6 407.1 233.7"/></g><g id="Layer_7" data-name="Layer 7"><path class="cls-1" d="M316.6,329.3q80.4-64.4,194.1-64.8c71.2-1.8,135.5,22,195.5,61.3l-39.8,49.7,52,34.7c11.9,7.9-2.6,24.7-15.3,8l-3,2.7c3.7,6.9,8.9,10.3,15.3,11.1,8.3-1.4,13.3-6.1,13.8-15.3A26.2,26.2,0,0,0,719,401.4l-.6-30.4,34.5-1.1,43.7-54.1c-69.9-70.5-159-117-282-121.3-110.4-1.7-204.8,37.2-282.3,118.8l40,56.6h31.9v26.3c-7.6,3.9-11.8,9.8-11.1,18.5,2.5,6.5,7.2,9.8,13.3,11.3,6.5-2,10.9-5.1,12.7-9.8-.5-2.9-1.8-5-4.1-5.9-12.1,18.3-21.9-1.2-9.7-5.4L351.4,372Z" transform="translate(-120 -85.1)"/><polygon class="cls-2" points="188.8 286 221.5 286 188.7 308.3 188.8 286"/><path class="cls-2" d="M310.4,332.1c-15.1,11.7-25.9,23.9-31.8,34l61.8,1.4Z" transform="translate(-120 -85.1)"/><path class="cls-1" d="M310.3,342.8A97.9,97.9,0,0,0,293.6,359h31Z" transform="translate(-120 -85.1)"/><path class="cls-2" d="M238.6,313.3,274,362.7c51.2-57.6,119.2-101.6,238-104.1,88.3.8,169,33.1,241.3,100.9l35.3-42.6C715.5,240.5,623.8,200.5,512,199.8,398.9,201.8,308.3,240.5,238.6,313.3Z" transform="translate(-120 -85.1)"/><path class="cls-1" d="M246.6,314.5l27.1,39.4c58.2-61.1,135.3-97.4,236.8-101.7,99.6,2.4,178.7,38.4,242.7,98.8l27.5-34.4C713,247.7,624.3,208.7,510.5,205.3,404.8,206.5,317.1,243.3,246.6,314.5Z" transform="translate(-120 -85.1)"/><path class="cls-2" d="M709.9,328.8a205.4,205.4,0,0,1,40.2,36.5q-34.2,1.6-71,2.8Z" transform="translate(-120 -85.1)"/><polygon class="cls-2" points="557.3 287.8 592.2 286.6 592.2 313 557.3 287.8"/><path class="cls-1" d="M713.3,338.8,696.4,359l38-1.3A161.8,161.8,0,0,0,713.3,338.8Z" transform="translate(-120 -85.1)"/><path class="cls-2" d="M310.8,297.1a7.7,7.7,0,0,1,1.3,4.6,8.8,8.8,0,0,1-1.7,5,18.2,18.2,0,0,1-4.8,4.8,17,17,0,0,1-7,3.3,11.8,11.8,0,0,1-4.6-.3,6.1,6.1,0,0,1-3.3-2.1,2.5,2.5,0,0,1-.4-1.9,2.7,2.7,0,0,1,1.2-1.8,2.7,2.7,0,0,1,1.7-.6,4.1,4.1,0,0,1,2,.6,11.2,11.2,0,0,0,2.4,1,5.2,5.2,0,0,0,2.5,0,8.4,8.4,0,0,0,3-1.5,8.3,8.3,0,0,0,3-3.6,3.2,3.2,0,0,0-.2-3.4,2.7,2.7,0,0,0-2.1-1.3,5.8,5.8,0,0,0-2.8.4,24.8,24.8,0,0,0-3.9,1.6,30.7,30.7,0,0,1-5.6,2.1,9.1,9.1,0,0,1-4.6.2,5.9,5.9,0,0,1-3.6-2.3,6.8,6.8,0,0,1-1.3-4.2,10.2,10.2,0,0,1,1.8-4.8,20.4,20.4,0,0,1,4.9-4.8,18,18,0,0,1,4.7-2.5,12.9,12.9,0,0,1,4-.8,8.3,8.3,0,0,1,3,.7,4.9,4.9,0,0,1,1.9,1.5,3,3,0,0,1,.3,1.9,3.1,3.1,0,0,1-1.3,1.9,3.2,3.2,0,0,1-1.7.6l-1.9-.6a7.9,7.9,0,0,0-3.2-.8,7.2,7.2,0,0,0-3.8,1.7,7.4,7.4,0,0,0-2.8,3.2c-.5,1.2-.5,2.1.1,2.8a2.1,2.1,0,0,0,1.3.9,3.8,3.8,0,0,0,1.8-.1l1.9-.5,3-1.3c1.7-.8,3.3-1.4,4.7-1.9a16.4,16.4,0,0,1,4.1-.8,7.2,7.2,0,0,1,3.3.6A7.9,7.9,0,0,1,310.8,297.1Z" transform="translate(-120 -85.1)"/><path class="cls-2" d="M324.8,271l-6.3,3.6L329,292a3.6,3.6,0,0,1,.6,2.7,3.1,3.1,0,0,1-1.5,1.9,3.4,3.4,0,0,1-2.4.4,4.1,4.1,0,0,1-2.1-1.7c-3.5-5.8-7.1-11.5-10.7-17.2l-6.1,3.8a3.5,3.5,0,0,1-2.5.9,2.1,2.1,0,0,1-1.8-2.9,3.9,3.9,0,0,1,1.8-1.9c5.9-3.9,12-7.6,18.1-11.1a4.1,4.1,0,0,1,2.6-.7,2.3,2.3,0,0,1,1.6,1.1,2.1,2.1,0,0,1,0,1.9A4.4,4.4,0,0,1,324.8,271Z" transform="translate(-120 -85.1)"/><path class="cls-2" d="M356.1,253l6,13.3c.5,1.2.9,2.2,1.2,3.1a11,11,0,0,1,.4,2.7,8.1,8.1,0,0,1-1.6,4.7,12.7,12.7,0,0,1-4.7,3.7,13.4,13.4,0,0,1-5,1.5,7.5,7.5,0,0,1-4.3-1.1,14.6,14.6,0,0,1-2.1-1.6,10.2,10.2,0,0,1-1.6-2.2,2.5,2.5,0,0,1-.2-2.2,3.1,3.1,0,0,1,1.6-1.6,2.5,2.5,0,0,1,2-.3,5,5,0,0,1,1.7,1.4l1.7,1.8a4.9,4.9,0,0,0,1.8.8,4.5,4.5,0,0,0,2.4-.5c2.4-1.2,2.9-3.5,1.3-6.8l-6.6-13.9a3.4,3.4,0,0,1-.3-2.7,3.2,3.2,0,0,1,1.8-1.8,3.5,3.5,0,0,1,2.6-.3A3.7,3.7,0,0,1,356.1,253Z" transform="translate(-120 -85.1)"/><path class="cls-2" d="M373.8,241.8a20.3,20.3,0,0,1,8.7-1.4,11.8,11.8,0,0,1,6.8,3,15.7,15.7,0,0,1,4.2,6.6,17.8,17.8,0,0,1,1,5.9,15.2,15.2,0,0,1-1.2,5.2,13.1,13.1,0,0,1-3.4,4.4,19.4,19.4,0,0,1-5.5,3.2,21.8,21.8,0,0,1-6.3,1.4,13.3,13.3,0,0,1-5.4-1,12.5,12.5,0,0,1-4.5-3.1,19.7,19.7,0,0,1-3.3-5,17.6,17.6,0,0,1-1.4-5.8,12.4,12.4,0,0,1,1.1-5.4,13.4,13.4,0,0,1,3.4-4.6A21.6,21.6,0,0,1,373.8,241.8Zm13.6,10.3a12,12,0,0,0-2.8-4.7,7.5,7.5,0,0,0-4.2-2,9.7,9.7,0,0,0-5,.6,10.8,10.8,0,0,0-3.1,1.9,8.7,8.7,0,0,0-1.9,2.8,8.5,8.5,0,0,0-.5,3.6,11.6,11.6,0,0,0,1,4.2,12.1,12.1,0,0,0,2.2,3.7,9.3,9.3,0,0,0,3,2.3,8.8,8.8,0,0,0,3.2.7,8.3,8.3,0,0,0,3.4-.7,9.7,9.7,0,0,0,3.7-2.5,8,8,0,0,0,1.8-4.3A11.4,11.4,0,0,0,387.4,252.1Z" transform="translate(-120 -85.1)"/><path class="cls-2" d="M422,247.3a8.7,8.7,0,0,1-.2,4.8,9.4,9.4,0,0,1-3.2,4.1,16.5,16.5,0,0,1-5.8,2.8,15.1,15.1,0,0,1-7.4.7,9.7,9.7,0,0,1-4.1-1.9,6.7,6.7,0,0,1-2.4-3,2.8,2.8,0,0,1,.2-2,2.9,2.9,0,0,1,1.7-1.3,2,2,0,0,1,1.7.1,4.4,4.4,0,0,1,1.7,1.2,7.6,7.6,0,0,0,1.8,1.8,5.2,5.2,0,0,0,2.3.8,6.3,6.3,0,0,0,3.2-.3,7.7,7.7,0,0,0,3.9-2.4,3.3,3.3,0,0,0,.9-3.2,3.5,3.5,0,0,0-1.5-2,7.6,7.6,0,0,0-2.7-.6l-4.1.2a38.5,38.5,0,0,1-5.8.1,9.5,9.5,0,0,1-4.2-1.4,6.9,6.9,0,0,1-2.6-3.4,7.3,7.3,0,0,1,.1-4.4,9.5,9.5,0,0,1,3.2-3.9,17,17,0,0,1,5.9-2.7,14.2,14.2,0,0,1,5.1-.8,11.4,11.4,0,0,1,3.9.6,7.3,7.3,0,0,1,2.6,1.7,4.7,4.7,0,0,1,1.2,2,3.2,3.2,0,0,1-.3,1.9,2.7,2.7,0,0,1-1.8,1.3,2.5,2.5,0,0,1-1.7,0,5.1,5.1,0,0,1-1.6-1.2,6.4,6.4,0,0,0-2.7-1.8,6.2,6.2,0,0,0-4,.2,7.8,7.8,0,0,0-3.6,2.1,2.6,2.6,0,0,0-.7,2.7,1.8,1.8,0,0,0,.9,1.2,3.8,3.8,0,0,0,1.6.6h2l3.1-.2h4.9a22.5,22.5,0,0,1,4,.6,7.5,7.5,0,0,1,2.8,1.8A6.6,6.6,0,0,1,422,247.3Z" transform="translate(-120 -85.1)"/><path class="cls-2" d="M443.3,227.1c-4.7.9-9.5,1.8-14.2,2.9l1.5,6.7,12.8-2.7a3.4,3.4,0,0,1,2.3.2,1.9,1.9,0,0,1,.9,1.4,1.6,1.6,0,0,1-.4,1.6,2.9,2.9,0,0,1-2,1l-12.6,2.6c.6,2.6,1.2,5.2,1.7,7.8,4.7-1.1,9.3-2,14-2.9a3.1,3.1,0,0,1,2.2.3,2.1,2.1,0,0,1,1,1.4,2.2,2.2,0,0,1-.4,1.8,3.4,3.4,0,0,1-2,1c-5.4.9-10.7,2-16.1,3.3a3.9,3.9,0,0,1-2.9-.2,3.4,3.4,0,0,1-1.5-2.3c-1.6-6.8-3.3-13.6-4.9-20.4a3.5,3.5,0,0,1-.1-2,2.1,2.1,0,0,1,1-1.4,5.1,5.1,0,0,1,2.1-.9c5.6-1.3,11.2-2.5,16.8-3.5a3.7,3.7,0,0,1,2.4.2,1.9,1.9,0,0,1,1,1.4,1.8,1.8,0,0,1-.5,1.7A3.5,3.5,0,0,1,443.3,227.1Z" transform="translate(-120 -85.1)"/><path class="cls-2" d="M465,236.5l-5.7.8,1.2,7.8a3.9,3.9,0,0,1-.5,2.7,2.9,2.9,0,0,1-2,1.1,2.7,2.7,0,0,1-2.3-.5,3.6,3.6,0,0,1-1.2-2.3c-1.2-7.1-2.3-14.2-3.5-21.3a3.6,3.6,0,0,1,.5-2.8,5.2,5.2,0,0,1,3-1.2c2.7-.5,5.5-.9,8.2-1.2a23.2,23.2,0,0,1,5.7-.2,10.2,10.2,0,0,1,3.6,1.2,6.4,6.4,0,0,1,2.4,2.5,9,9,0,0,1,1.1,3.5,7.8,7.8,0,0,1-2.3,6.7C471.5,235,468.7,236,465,236.5ZM461.7,224l-4.2.6,1.2,8.4,4.2-.5a13.4,13.4,0,0,0,3.6-.9,3.9,3.9,0,0,0,2.6-4.2,4.2,4.2,0,0,0-1.6-2.9C466.5,223.8,464.6,223.6,461.7,224Z" transform="translate(-120 -85.1)"/><path class="cls-2" d="M486,220.2l.6,8,13.5-.7c0-2.6-.1-5.3-.2-8a3.2,3.2,0,0,1,.8-2.6,3,3,0,0,1,2.3-.9,3.3,3.3,0,0,1,2.4.8,3.4,3.4,0,0,1,.9,2.6c.1,7.3.2,14.6.4,22a3.6,3.6,0,0,1-.9,2.6,3.4,3.4,0,0,1-2.1.9,3.3,3.3,0,0,1-2.2-.8,3.6,3.6,0,0,1-.9-2.6l-.3-9.4-13.4.7c.2,3.1.5,6.2.7,9.4a3.5,3.5,0,0,1-.7,2.6,2.7,2.7,0,0,1-2.1,1,2.5,2.5,0,0,1-2.2-.7,3.5,3.5,0,0,1-1.1-2.5c-.6-7.3-1.2-14.6-1.9-21.9a3.5,3.5,0,0,1,.7-2.6,3.3,3.3,0,0,1,2.2-1.1,4.1,4.1,0,0,1,2.5.7A3.2,3.2,0,0,1,486,220.2Z" transform="translate(-120 -85.1)"/><path class="cls-2" d="M535.5,236.6a7.4,7.4,0,0,1-1.7,4.5,8.6,8.6,0,0,1-4.2,2.9,15.7,15.7,0,0,1-6.4.9,15.3,15.3,0,0,1-7.2-1.7,8.4,8.4,0,0,1-3.2-3,6.4,6.4,0,0,1-1.3-3.6,2.4,2.4,0,0,1,.7-1.8,2.9,2.9,0,0,1,2-.7,3.1,3.1,0,0,1,1.7.5,5,5,0,0,1,1.1,1.8,21.8,21.8,0,0,0,1.2,2.2,4.9,4.9,0,0,0,1.9,1.5,8.4,8.4,0,0,0,3.1.7,8.2,8.2,0,0,0,4.4-1,3.7,3.7,0,0,0,1.9-2.9,3.2,3.2,0,0,0-.9-2.3,5.3,5.3,0,0,0-2.3-1.4l-3.9-1.1a27.3,27.3,0,0,1-5.5-1.8,7.9,7.9,0,0,1-3.5-2.6,5.9,5.9,0,0,1-1.4-4,6.3,6.3,0,0,1,1.5-4.1,8.2,8.2,0,0,1,4.1-2.7,18.1,18.1,0,0,1,6.4-.8,15.2,15.2,0,0,1,5.1.8,10.6,10.6,0,0,1,3.5,1.9,6.7,6.7,0,0,1,1.9,2.3,4,4,0,0,1,.5,2.3,2.3,2.3,0,0,1-.9,1.8,2.9,2.9,0,0,1-2,.7,3.4,3.4,0,0,1-1.7-.6,10.1,10.1,0,0,1-1.1-1.7,7.1,7.1,0,0,0-2-2.5,6,6,0,0,0-3.8-1,6.8,6.8,0,0,0-4,.8c-1.1.7-1.6,1.4-1.6,2.3a2.5,2.5,0,0,0,.5,1.5,4,4,0,0,0,1.4,1.1l1.8.7,3,.8a44.1,44.1,0,0,1,4.7,1.4,14.3,14.3,0,0,1,3.5,1.8,7.2,7.2,0,0,1,2.1,2.5A6.9,6.9,0,0,1,535.5,236.6Z" transform="translate(-120 -85.1)"/><path class="cls-2" d="M575.7,241a9.4,9.4,0,0,1-1.2,2.8,11.6,11.6,0,0,1-6.9,4.4,16.7,16.7,0,0,1-5.5.1,23.5,23.5,0,0,1-4.2-1,17.1,17.1,0,0,1-3.3-1.7,13.4,13.4,0,0,1-2.6-2.7,15.4,15.4,0,0,1-1.7-3.1,23.7,23.7,0,0,1-.9-3.6,13.4,13.4,0,0,1,0-4,15.6,15.6,0,0,1,1.7-5.9,12.2,12.2,0,0,1,3.6-4.2,13.4,13.4,0,0,1,5.2-2.2,15.5,15.5,0,0,1,6.1-.2,14.8,14.8,0,0,1,6.6,2.3,11.1,11.1,0,0,1,4,4.1,5.2,5.2,0,0,1,.9,4,2.2,2.2,0,0,1-1,1.5,2.3,2.3,0,0,1-2,.4,2.7,2.7,0,0,1-1.7-.8,6.5,6.5,0,0,1-1-1.9,9.5,9.5,0,0,0-2.4-3.6,9.1,9.1,0,0,0-4-1.6,8.4,8.4,0,0,0-6.6,1.8,11.5,11.5,0,0,0-3.2,7.2,13.6,13.6,0,0,0,.4,5.5,7.6,7.6,0,0,0,2.4,3.6,8.5,8.5,0,0,0,4,1.6,8.8,8.8,0,0,0,4.6-.6,6.8,6.8,0,0,0,3.2-3.1,7,7,0,0,1,1.3-1.6,2.2,2.2,0,0,1,2-.3,2.3,2.3,0,0,1,1.7,1A2,2,0,0,1,575.7,241Z" transform="translate(-120 -85.1)"/><path class="cls-2" d="M598,225.6a17.6,17.6,0,0,1,7.9,3.7,11.4,11.4,0,0,1,4,6.2,15.3,15.3,0,0,1-.3,7.9,19.1,19.1,0,0,1-2.5,5.4,15.2,15.2,0,0,1-3.9,3.7,13.3,13.3,0,0,1-5.2,1.7,19.5,19.5,0,0,1-6.3-.4,18.7,18.7,0,0,1-5.9-2.4,12.1,12.1,0,0,1-3.9-3.9,12.7,12.7,0,0,1-1.9-5,17.4,17.4,0,0,1,.1-6,16.3,16.3,0,0,1,2.1-5.6A12.9,12.9,0,0,1,586,227a12.4,12.4,0,0,1,5.4-1.8A18.9,18.9,0,0,1,598,225.6Zm5.5,16.1a11.1,11.1,0,0,0,.2-5.4,7.6,7.6,0,0,0-2.3-4.1A9.2,9.2,0,0,0,597,230a8.8,8.8,0,0,0-3.6-.2,7.7,7.7,0,0,0-3.1,1.2,9.3,9.3,0,0,0-2.5,2.7,12.8,12.8,0,0,0-1.5,4,13.4,13.4,0,0,0-.2,4.4,9.6,9.6,0,0,0,1.1,3.5,7.6,7.6,0,0,0,2.3,2.4,8,8,0,0,0,3.1,1.4,9.7,9.7,0,0,0,4.5-.1,7.7,7.7,0,0,0,3.8-2.5A12.3,12.3,0,0,0,603.5,241.7Z" transform="translate(-120 -85.1)"/><path class="cls-2" d="M623.3,235.9l-6,19.4c4,1.2,7.9,2.5,11.8,3.9a3.4,3.4,0,0,1,2,1.4,2.3,2.3,0,0,1,.2,1.8,2.4,2.4,0,0,1-1.3,1.3,4,4,0,0,1-2.4-.1c-4.6-1.6-9.2-3.1-13.9-4.5a4.4,4.4,0,0,1-2.5-1.6,3.7,3.7,0,0,1-.1-2.8l6-20.6a3.6,3.6,0,0,1,1.5-2.3,3.1,3.1,0,0,1,2.5-.1,3.3,3.3,0,0,1,2.1,1.5A3.5,3.5,0,0,1,623.3,235.9Z" transform="translate(-120 -85.1)"/><path class="cls-2" d="M648.2,244.5c-2.4,6.3-4.9,12.6-7.3,19,3.9,1.5,7.8,3,11.6,4.7a3.3,3.3,0,0,1,1.9,1.5,1.9,1.9,0,0,1,0,1.8,1.6,1.6,0,0,1-1.3,1.2,3.5,3.5,0,0,1-2.4-.3c-4.5-1.9-9.1-3.7-13.7-5.4a4,4,0,0,1-2.3-1.8,3.4,3.4,0,0,1,0-2.8c2.5-6.7,5-13.5,7.4-20.2a3.4,3.4,0,0,1,1.7-2.1,3.6,3.6,0,0,1,2.5,0,3.4,3.4,0,0,1,2,1.7A3.6,3.6,0,0,1,648.2,244.5Z" transform="translate(-120 -85.1)"/><path class="cls-2" d="M685.4,262.7l-13.2-6.5-3,6.2c4.1,1.9,8.1,3.9,12,5.9a2.9,2.9,0,0,1,1.7,1.5,1.7,1.7,0,0,1-.1,1.7,1.8,1.8,0,0,1-1.3,1.1,4,4,0,0,1-2.2-.5c-3.9-2-7.9-4-11.9-5.8l-3.3,7.2c4.3,2,8.7,4.2,13,6.4a3.1,3.1,0,0,1,1.6,1.6,1.7,1.7,0,0,1-.1,1.8,1.9,1.9,0,0,1-1.4,1,3.2,3.2,0,0,1-2.2-.4c-4.9-2.6-9.9-5-15-7.3a4.6,4.6,0,0,1-2.3-2,3.6,3.6,0,0,1,.3-2.8c2.9-6.3,5.7-12.7,8.6-19.1a3.7,3.7,0,0,1,1.2-1.7,2.2,2.2,0,0,1,1.6-.4,5.6,5.6,0,0,1,2.3.6c5.3,2.4,10.5,5,15.7,7.6a4.3,4.3,0,0,1,1.8,1.7,1.7,1.7,0,0,1,0,1.7,2.1,2.1,0,0,1-1.5,1.1A3.8,3.8,0,0,1,685.4,262.7Z" transform="translate(-120 -85.1)"/><path class="cls-2" d="M711.6,292.1l-3,4.5a7.5,7.5,0,0,1-1.1,1.3l-1.3.5h-1.9a22.1,22.1,0,0,1-5.6-1.2,23,23,0,0,1-5.1-2.3,21.3,21.3,0,0,1-5.1-4.1,15.9,15.9,0,0,1-2.9-5,12.6,12.6,0,0,1-.6-5.5,14.7,14.7,0,0,1,1.9-5.8,14.8,14.8,0,0,1,3.8-4.7,11.1,11.1,0,0,1,5.1-2.5,14.1,14.1,0,0,1,6.1.2,21.3,21.3,0,0,1,6.8,2.8,19.6,19.6,0,0,1,4.6,3.7,11.3,11.3,0,0,1,2.5,3.8,8.8,8.8,0,0,1,.8,3.3,4.3,4.3,0,0,1-.6,2.4,2.3,2.3,0,0,1-1.7,1,3.7,3.7,0,0,1-2.3-.5,4.7,4.7,0,0,1-1-1,2.9,2.9,0,0,1-.5-1.3c-.1-1.3-.3-2.4-.4-3.2a8.9,8.9,0,0,0-1.2-2.4,10.1,10.1,0,0,0-2.9-2.3,10.5,10.5,0,0,0-3.9-1.5,7.6,7.6,0,0,0-6.8,1.9,12.3,12.3,0,0,0-2.6,3.3,10.5,10.5,0,0,0-1.6,7.8,9.5,9.5,0,0,0,4.7,5.8,15.9,15.9,0,0,0,3.8,1.7,17.5,17.5,0,0,0,4.1.8l2.4-3.8-4.2-2.6a10.5,10.5,0,0,1-2.1-1.8,1.9,1.9,0,0,1,.1-1.9,1.9,1.9,0,0,1,1.4-.9,3.3,3.3,0,0,1,2.1.5l6.3,3.9,1.8,1.4a3.5,3.5,0,0,1,.8,1.6A4.3,4.3,0,0,1,711.6,292.1Z" transform="translate(-120 -85.1)"/><path class="cls-2" d="M740.7,297.6c-4.1-3-8.1-6-12.3-8.9l-3.9,5.7c3.7,2.6,7.4,5.2,11.1,8a3.2,3.2,0,0,1,1.4,1.8,1.7,1.7,0,0,1-.3,1.7,1.9,1.9,0,0,1-1.6.8,3.7,3.7,0,0,1-2.1-.9c-3.6-2.7-7.3-5.4-10.9-7.9l-4.6,6.5q6.2,4.2,12,8.7a3.3,3.3,0,0,1,1.4,1.9,1.8,1.8,0,0,1-.4,1.8,1.9,1.9,0,0,1-1.5.8,3.7,3.7,0,0,1-2.2-.9c-4.6-3.5-9.2-6.8-13.8-10a4.3,4.3,0,0,1-2-2.4,3.3,3.3,0,0,1,.7-2.7l11.7-17.4a4.8,4.8,0,0,1,1.5-1.4,2.5,2.5,0,0,1,1.7-.2,6.5,6.5,0,0,1,2.2,1.1c4.9,3.3,9.7,6.8,14.5,10.5a3.9,3.9,0,0,1,1.6,1.9,2.3,2.3,0,0,1-.4,1.8,1.9,1.9,0,0,1-1.6.7A3.5,3.5,0,0,1,740.7,297.6Z" transform="translate(-120 -85.1)"/></g></svg>