<svg xmlns="http://www.w3.org/2000/svg" viewBox="0 0 3829.5 1024"><defs><style>.cls-1,.cls-3,.cls-5{fill:#fff;}.cls-2{fill:#1b154a;}.cls-3,.cls-5{stroke:#fff;stroke-miterlimit:10;}.cls-3{stroke-width:0.5px;}.cls-4{fill:none;stroke:#1b154a;stroke-linejoin:round;stroke-width:5px;}.cls-5{stroke-width:2px;}</style></defs><g id="Layer_3" data-name="Layer 3"><path class="cls-1" d="M183.1,83.7,24.3,236.5c58,39.7,79.2,98.9,58.7,180.2L42.1,668.4c12.2,61,44.1,114,87.1,162.8L316,937l138.7,69.3,151.9-68.2L786,826.4c40.1-53.1,70.5-108.1,75.8-168.2L819,411.5c-3.1-73.4,17.5-133.4,59.4-181.6L731.9,83.6c-101.7,16.5-194.2-.9-276-57.1C371.1,77.2,280.1,96,183.1,83.7Z"/></g><g id="Layer_1" data-name="Layer 1"><g id="Layer_1-2" data-name="Layer 1"><path class="cls-2" d="M191.9,100.6,65.3,226.4c52.7,54.2,57.2,135.5,42.8,227.3-17.8,150.5-54.7,189.1-6.5,282.9,35.2,68,191.4,148.1,354.7,234.7C712.6,843,796.4,784.2,817.8,725.9c39.3-73.7,8.4-131.3-16-281.1-11.8-104.8,3-178.6,47-218.4L723.3,101.9C612.7,136.3,527,97.1,456.3,43c-90.6,70.7-178.6,85.9-264.5,57.6l-5.1-14.2C286.9,115,376.8,90,457.5,18.3c82,55.4,172.8,78.9,276,57.1L880,221.7q-67.8,91.8-49,223.1c30.7,96.4,49,237.8,11.5,287.7C804.2,825,637.2,935.4,456.3,998.2c-157.1-72.9-296-151.5-375.2-248.8-48.2-50.3-37.7-176.8,2.7-299.5,4-85.4-5.8-162-40.1-222.9l143-140.7Z"/><path class="cls-1" d="M189.3,90.8c57.4,17.3,109.7,16.8,157.5,0C386.2,76.1,422.4,56,456.3,31.7A472.7,472.7,0,0,0,582.8,97.3c43.1,10.7,90.8,7.9,142.6-6.2L862.2,226.4c-74.6,69.8-66.9,201.1-16.4,385.2,15.8,190.2-128.4,228.5-388.3,369.9C209.2,852,52.3,797.2,68.3,611.6c46.1-179.9,58.5-325.7-15-385.2L0,230.1C83.2,283.7,95.1,346,35.6,611.6,13.4,819.5,203.2,885.2,454.8,1024,792.4,861.5,895.7,780.5,877.3,611.6c-44.6-212-60.6-330.8,39.3-381.5L733.5,53.1C683.9,70.8,634,76.4,584.1,65.9,539.5,52.6,497.2,30,456.3,0c-40.5,30.3-80.2,51.9-119.1,63.8C277.2,76,224,72.4,177.5,53.4L0,230.1l53.2-3.7Z"/></g><g id="Layer_2" data-name="Layer 2"><path class="cls-2" d="M302.3,608.2c22.6,71.7,72.5,110.5,153.9,113.7,70.2-.8,122.6-35.7,148-113.7,22.7,3.5,39,9.9,49.6,19.1-1.6,16.1-4.4,29.7-8.5,41,2.6-2.1,5.4-3.6,8.5-3.1,7.8.4,10.9,5.4,9.2,13.8s-9.5,8.9-17.7,7.1c-10.2-1.6-17.2-6.4-20.3-14.8-33.7,57.7-89,91-168.8,96.3-71.1-.3-129.5-29.8-173.5-92.8-5.1,8.4-14,12.3-25.6,13.1-8.1-3-10.3-7.8-5.3-14.9,2.4-2.2,5.3-2.7,8.9-1.1a303.6,303.6,0,0,1-3.6-44.6C269.1,619,283.6,612.3,302.3,608.2Z"/><path class="cls-3" d="M280.4,634l13.5-5.3a2.1,2.1,0,0,1,1.9.1,3.3,3.3,0,0,1,1.1,1.5,2.6,2.6,0,0,1,.3,2.1,2.1,2.1,0,0,1-1.2,1.4l-13.3,5.7a1.5,1.5,0,0,1-1.8,0,4.9,4.9,0,0,1-1.4-1.8,2.6,2.6,0,0,1-.2-2.3A1.9,1.9,0,0,1,280.4,634Z"/><path class="cls-3" d="M301.7,645.8c-1.6,4.8-3,9.6-4.3,14.4l9.3-5.7a2.2,2.2,0,0,1,1.8-.2,2,2,0,0,1,1.2,1.2,2.2,2.2,0,0,1,.5,1.7,1.9,1.9,0,0,1-1,1.4l-12.1,7.9c-1.3.8-2.6.4-3.6-1.3l-.6-1.2a7.9,7.9,0,0,1-.3-1.3c0-.4.2-.8.2-1.2l.3-1.3c1.3-4.8,2.7-9.6,4.3-14.3l-9.5,5a1.9,1.9,0,0,1-1.8,0,4.7,4.7,0,0,1-1.3-1.5,2.5,2.5,0,0,1-.4-2.1,1.6,1.6,0,0,1,1.1-1.3l12.7-6.1,1.4-.4a3.5,3.5,0,0,1,1.4.6,7.6,7.6,0,0,1,1.1,1.4,2.7,2.7,0,0,1,.3,1.2,1.4,1.4,0,0,1,0,.9,3,3,0,0,1-.2,1Z"/><path class="cls-3" d="M322,692.8a4.5,4.5,0,0,1-3.1,1.2,6.8,6.8,0,0,1-3.9-1.3,15.3,15.3,0,0,1-4.3-3.7,15.6,15.6,0,0,1-3.4-5.8,6.9,6.9,0,0,1-.3-3.5,3.3,3.3,0,0,1,1.2-2.5,1.2,1.2,0,0,1,1.3-.1,2.2,2.2,0,0,1,1.4,1.1,1.8,1.8,0,0,1,.6,1.4,7.8,7.8,0,0,1-.2,1.4,7.7,7.7,0,0,0-.5,1.7,6.4,6.4,0,0,0,.3,2,6.3,6.3,0,0,0,1.6,2.3,6.2,6.2,0,0,0,3,2.5,2.2,2.2,0,0,0,2.4-.3,1.5,1.5,0,0,0,.6-1.5,8.6,8.6,0,0,0-.7-2.1,26.9,26.9,0,0,0-1.6-2.9,17.2,17.2,0,0,1-2.1-4.3,6.6,6.6,0,0,1-.6-3.4,3.5,3.5,0,0,1,1.5-2.5,3.5,3.5,0,0,1,2.8-.7,6.4,6.4,0,0,1,3.4,1.4,22.4,22.4,0,0,1,3.6,3.3,16.6,16.6,0,0,1,2.2,3.2,7.1,7.1,0,0,1,.9,2.8,3.7,3.7,0,0,1,0,2.1,2.1,2.1,0,0,1-.7,1.4,1.3,1.3,0,0,1-1.2.3,2.1,2.1,0,0,1-1.6-.8,1.7,1.7,0,0,1-.5-1.2,2.3,2.3,0,0,1,.1-1.4,8.7,8.7,0,0,0,.1-2.3,7.2,7.2,0,0,0-1.5-2.7,7,7,0,0,0-2.6-1.9,1.5,1.5,0,0,0-1.8,0,1.1,1.1,0,0,0-.5.9,3.3,3.3,0,0,0,.1,1.4l.6,1.4,1.3,2.2a22.1,22.1,0,0,1,1.8,3.4,10.8,10.8,0,0,1,1.3,2.9,4.9,4.9,0,0,1,.1,2.4A3.6,3.6,0,0,1,322,692.8Z"/><path class="cls-3" d="M341.6,710.2a3.1,3.1,0,0,1-1.6,1.1,4.9,4.9,0,0,1-2.7.5,11.9,11.9,0,0,1-3.6-.9,21.1,21.1,0,0,1-4-2.6,13.7,13.7,0,0,1-2.6-2.8,12.7,12.7,0,0,1-1.8-2.7,24.6,24.6,0,0,1-.7-2.9,10.5,10.5,0,0,1,0-2.5,18.6,18.6,0,0,1,1-2.5,13.7,13.7,0,0,1,1.5-2.1,9.9,9.9,0,0,1,3.5-2.2,11.6,11.6,0,0,1,3.7-.3,14.5,14.5,0,0,1,4.1,1,24.5,24.5,0,0,1,3.7,2.6,15.5,15.5,0,0,1,3.3,3.9,8.9,8.9,0,0,1,1.2,3.9,3.7,3.7,0,0,1-.5,2.7,1.3,1.3,0,0,1-1.2.5,2.4,2.4,0,0,1-1.4-.5,2.2,2.2,0,0,1-.9-1.2,3.8,3.8,0,0,1,0-1.5,7.6,7.6,0,0,0-.5-3,5.7,5.7,0,0,0-2-2.6,6.6,6.6,0,0,0-4.6-1.9,6.8,6.8,0,0,0-4.8,2.4,7.1,7.1,0,0,0-1.9,3.1,5.4,5.4,0,0,0,.4,3.3,8.9,8.9,0,0,0,2.2,2.9,8.6,8.6,0,0,0,3.4,1.8,5,5,0,0,0,3.2-.3l1.4-.5a2.6,2.6,0,0,1,1.5.7,3.1,3.1,0,0,1,1,1.3A1.6,1.6,0,0,1,341.6,710.2Z"/><path class="cls-3" d="M343.5,716.3l8.5-11.6a2.5,2.5,0,0,1,1.5-1,4.1,4.1,0,0,1,1.8.5,2.6,2.6,0,0,1,1,1.4,3.1,3.1,0,0,1-.3,1.9l-8.3,11.9a2.4,2.4,0,0,1-3.5.3,4.4,4.4,0,0,1-1.2-1.5A2.6,2.6,0,0,1,343.5,716.3Z"/><path class="cls-3" d="M373.4,719l-9.3-5.1c-.7,1.3-1.5,2.6-2.3,3.8,2.9,1.8,5.8,3.4,8.8,4.9a3,3,0,0,1,1.3,1.2.9.9,0,0,1,0,1,1.1,1.1,0,0,1-.9.7,2.8,2.8,0,0,1-1.8-.4c-3-1.5-5.9-3.3-8.8-5l-2.8,4.5c3.5,2,6.9,4,10.4,5.7a3.7,3.7,0,0,1,1.3,1.2,1.2,1.2,0,0,1,.2,1.3,2.6,2.6,0,0,1-1.1.7,5.3,5.3,0,0,1-1.8-.5c-4.1-2.2-8.2-4.4-12.2-6.9a5.8,5.8,0,0,1-1.8-1.7,2.1,2.1,0,0,1,.3-1.9l7.5-11.6a3.2,3.2,0,0,1,1-1,1.7,1.7,0,0,1,1.2-.1,3.9,3.9,0,0,1,1.5.6c3.5,2.2,7.1,4.2,10.7,6.1a2.8,2.8,0,0,1,1.3,1.1,1.3,1.3,0,0,1,0,1.2,1.6,1.6,0,0,1-.9.7A4.1,4.1,0,0,1,373.4,719Z"/><path class="cls-3" d="M385.4,723.7c1.4,4.4,2.9,8.9,4.6,13.4l3.8-10.3a2.1,2.1,0,0,1,2.8-1.3,2.8,2.8,0,0,1,1.3,1.1,2.2,2.2,0,0,1,0,1.6c-1.7,4.6-3.2,9.1-4.8,13.8-.5,1.5-1.6,1.9-3.4,1.2l-1-.4-.8-.8a3,3,0,0,1-.6-1.1,4.7,4.7,0,0,1-.5-1,131.1,131.1,0,0,1-4.4-13.4c-1.5,3.2-2.9,6.6-4.4,9.9-.4.5-.7,1-1.3,1.1a2.3,2.3,0,0,1-1.8-.2,3.1,3.1,0,0,1-1.4-1.2,1.7,1.7,0,0,1,.2-1.7c1.9-4.3,4-8.5,6-12.8a3.6,3.6,0,0,1,.8-1.2,2,2,0,0,1,1.3-.4,2.7,2.7,0,0,1,1.5.3,1.5,1.5,0,0,1,.9.6l.6.7.4.9A5,5,0,0,0,385.4,723.7Z"/><path class="cls-3" d="M417.2,734.9l-5-1.2c-1.1,4.3-2.1,8.6-3.3,12.9a1.5,1.5,0,0,1-1,1.5,3.1,3.1,0,0,1-1.9.1,2.7,2.7,0,0,1-1.6-1,1.6,1.6,0,0,1-.2-1.9l3.4-12.8-4.8-1.4a2.6,2.6,0,0,1-1.6-.9,1.6,1.6,0,0,1-.2-1.2,1.4,1.4,0,0,1,.9-.9,3.7,3.7,0,0,1,1.8.1c4.6,1.4,9.4,2.6,14.2,3.6a8,8,0,0,1,1.6.8,1.4,1.4,0,0,1,.4,1.2,1.8,1.8,0,0,1-.8,1.1A6,6,0,0,1,417.2,734.9Z"/><path class="cls-3" d="M420.3,749.1c1-4.8,1.8-9.6,2.7-14.2a2.2,2.2,0,0,1,.9-1.7,3.2,3.2,0,0,1,1.7-.2,2.1,2.1,0,0,1,1.6.8,1.9,1.9,0,0,1,.3,1.8c-.6,4.7-1.5,9.5-2.2,14.3a1.8,1.8,0,0,1-1,1.5,2.5,2.5,0,0,1-1.9.3,3.2,3.2,0,0,1-1.7-.9A2.1,2.1,0,0,1,420.3,749.1Z"/><path class="cls-3" d="M447,751.8l-1.1-2.3-9.9-.8-1.4,2.3a7,7,0,0,1-1.3,1.7,1.9,1.9,0,0,1-1.8.3,2.6,2.6,0,0,1-1.5-.7c-.5-.5-.7-.8-.6-1.3a1.9,1.9,0,0,1,.2-.7,3.6,3.6,0,0,1,.7-1c2.6-3.7,5.2-7.5,7.5-11.2a7.5,7.5,0,0,1,.7-1.2,7.6,7.6,0,0,1,.8-1.1l1.2-.7a2.6,2.6,0,0,1,1.5-.1,3,3,0,0,1,1.6.3,2.4,2.4,0,0,1,.9.8l.7,1.1.6,1.5c1.8,4,3.7,8,5.8,12a3.7,3.7,0,0,1,.7,2,1.4,1.4,0,0,1-.7,1.1,2.6,2.6,0,0,1-1.7.5l-1-.2-.7-.4a2.4,2.4,0,0,1-.6-.9Zm-9.4-5.7,7.2.5q-1.7-3.7-3-7.8Z"/><path class="cls-3" d="M479.7,736.8,469.3,738l.4,4.4c3.2-.2,6.6-.6,9.9-1a2.9,2.9,0,0,1,1.6.1,1,1,0,0,1,.7.9,1.1,1.1,0,0,1-.3,1.1,3.6,3.6,0,0,1-1.7.7c-3.2.4-6.6.8-10,1,.1,1.8.4,3.5.5,5.3l11.5-1.3a3.1,3.1,0,0,1,1.9.1,1.2,1.2,0,0,1,.8.9,1.7,1.7,0,0,1-.5,1.2,3.6,3.6,0,0,1-1.7.7c-4.6.6-9.1,1.1-13.8,1.4a4.1,4.1,0,0,1-2.4-.4,2.1,2.1,0,0,1-.8-1.6c-.3-4.7-.5-9.2-.8-13.9a5,5,0,0,1,.2-1.2,1.4,1.4,0,0,1,.9-.8l1.5-.4a117.9,117.9,0,0,0,12.1-1.3,2.5,2.5,0,0,1,1.7.3,1,1,0,0,1,.7.9.8.8,0,0,1-.4,1A2.4,2.4,0,0,1,479.7,736.8Z"/><path class="cls-3" d="M501,732.6l-5,1.3,3.1,12.9a1.8,1.8,0,0,1-.2,1.9,2.6,2.6,0,0,1-1.6.9,2.7,2.7,0,0,1-2-.1,3.3,3.3,0,0,1-1.1-1.5l-2.7-13-5.1.9a2.8,2.8,0,0,1-1.8-.1,1.1,1.1,0,0,1-.7-.9,1.4,1.4,0,0,1,.3-1.3,2.8,2.8,0,0,1,1.7-.7c4.7-.9,9.5-1.9,14.3-3.2a3.2,3.2,0,0,1,1.7-.1,1.8,1.8,0,0,1,1,.9,1.4,1.4,0,0,1-.3,1.3A2.5,2.5,0,0,1,501,732.6Z"/><path class="cls-3" d="M517.1,726.5c3.1,3.2,6.4,6.4,9.6,9.4q.1-6.7,0-13.5v-1.5a1.2,1.2,0,0,1,.4-.8,1.6,1.6,0,0,1,1-.8,1.5,1.5,0,0,1,1.1-.4l1,.2.6.6c.1.3.1.5.2.6v1.4c.1,4.4,0,8.8-.2,13.3v1.5a5.9,5.9,0,0,1-.2,1.3,4.4,4.4,0,0,1-.8,1.1,7.1,7.1,0,0,1-1.4,1,5.7,5.7,0,0,1-1.8.3,2.2,2.2,0,0,1-1.4-.2l-1.2-.7-1-1.1c-3.3-2.9-6.5-6-9.5-9.2l-.5-.4-.5-.6c-.2-.1-.2-.4-.3-.5a2.2,2.2,0,0,1,.2-1.4,1.8,1.8,0,0,1,1.3-.9,2.1,2.1,0,0,1,1.9-.1A9.6,9.6,0,0,1,517.1,726.5Z"/><path class="cls-3" d="M541.4,731.4c-2.2-4.3-4.4-8.7-6.8-12.8a2.5,2.5,0,0,1-.1-1.9,2.5,2.5,0,0,1,1.2-1.3,2,2,0,0,1,1.7-.2,1.8,1.8,0,0,1,1.4,1.1l7.1,12.6a1.9,1.9,0,0,1,.1,1.9,3.1,3.1,0,0,1-3.2,1.7A1.8,1.8,0,0,1,541.4,731.4Z"/><path class="cls-3" d="M553.8,717.4l-1.5.9,3.2,5a1.9,1.9,0,0,1,.3,1.9,3.5,3.5,0,0,1-1.3,1.4,2.5,2.5,0,0,1-1.9.5,2.6,2.6,0,0,1-1.4-1.1l-7.4-12.2a2.2,2.2,0,0,1-.2-1.8,2.9,2.9,0,0,1,1.5-1.6c2.2-1.4,4.3-2.7,6.4-4.2l2.3-1.4,1.9-.8,2.2-.3a4.5,4.5,0,0,1,2,.4,4.7,4.7,0,0,1,1.5,1.3,3.7,3.7,0,0,1,.7,3.5,9,9,0,0,1-2.7,4.2,9.7,9.7,0,0,1,2.9-.2l3.2.4,2.4.8c.7.3,1.1.5,1.2.7a2.5,2.5,0,0,1,.2.7,4.5,4.5,0,0,1-.3,1.1l-1,.9a2,2,0,0,1-1.3.6,2.8,2.8,0,0,1-1.3,0l-1.8-.4-3-.8-2.8-.7a6.9,6.9,0,0,0-2,.3A5.2,5.2,0,0,0,553.8,717.4Zm-1.9-8-3.8,2.4,2.8,4.3,3.6-2.4a15.5,15.5,0,0,0,2.4-1.9,3.3,3.3,0,0,0,1-1.7,2.2,2.2,0,0,0-.3-1.6,2,2,0,0,0-1.2-.8,4.3,4.3,0,0,0-1.6,0Z"/><path class="cls-3" d="M574.6,691.7l-4,3.6,8.9,9.9a1.7,1.7,0,0,1,.5,1.8,2.7,2.7,0,0,1-1,1.7,3.7,3.7,0,0,1-1.8.8,2.3,2.3,0,0,1-1.7-.8L567,698.4l-4.1,3.4a3.6,3.6,0,0,1-1.7.7,1.1,1.1,0,0,1-1.2-.5,1.8,1.8,0,0,1-.2-1.3,4.7,4.7,0,0,1,1.1-1.3c4-3.2,7.8-6.5,11.6-10.1a4.2,4.2,0,0,1,1.6-.9,1.1,1.1,0,0,1,1.2.4,1.3,1.3,0,0,1,.3,1.2A4.8,4.8,0,0,1,574.6,691.7Z"/><path class="cls-3" d="M584.1,692.9l-6.3-6.1a3.3,3.3,0,0,1-.7-1.7,2.9,2.9,0,0,1,2.5-2.5,1.7,1.7,0,0,1,1.6.6l6.6,6.1a8.2,8.2,0,0,0,2.2,1.6,3.3,3.3,0,0,0,2.4-.3,10.4,10.4,0,0,0,2.8-2.3,6.3,6.3,0,0,0,1.9-4.1,4.6,4.6,0,0,0-1.8-3.2l-7.1-5.9a1.8,1.8,0,0,1-.8-1.6,2.7,2.7,0,0,1,.6-1.7,2.6,2.6,0,0,1,1.6-1.1,2.1,2.1,0,0,1,1.7.5l7,5.5a10.3,10.3,0,0,1,2.5,2.6,5.7,5.7,0,0,1,.5,3.4,8.9,8.9,0,0,1-1.1,3.6,16.4,16.4,0,0,1-2.6,3.7,18.5,18.5,0,0,1-3.8,3.6,10.3,10.3,0,0,1-3.5,1.7,5,5,0,0,1-3.2-.3A6.9,6.9,0,0,1,584.1,692.9Z"/><path class="cls-3" d="M604.6,653.3c-.9,1.6-1.9,3.2-2.9,4.8l11.3,7.3a2.1,2.1,0,0,1,1,1.5,3.1,3.1,0,0,1-.7,2,2.9,2.9,0,0,1-1.5,1.4,1.9,1.9,0,0,1-1.8-.3l-11.1-7.5-3.1,4.6a3.4,3.4,0,0,1-1.6,1.3,1.1,1.1,0,0,1-1.1-.1,1.2,1.2,0,0,1-.6-1.2,4.6,4.6,0,0,1,.8-1.9q4.5-6.5,8.7-13.5a3.7,3.7,0,0,1,1.3-1.5,2,2,0,0,1,1.3-.1,1.4,1.4,0,0,1,.7,1.2A4.8,4.8,0,0,1,604.6,653.3Z"/><path class="cls-3" d="M615,631.8c-1.6,3.9-3.3,7.6-5,11.2l3.9,2c1.8-3.4,3.3-6.9,4.8-10.5a3.6,3.6,0,0,1,1.1-1.6,1.1,1.1,0,0,1,1.2-.1,1,1,0,0,1,.7.9,3.4,3.4,0,0,1-.3,2l-4.9,10.6c1.5.8,3,1.6,4.6,2.3,2-4,3.9-8,5.6-12.3a3.6,3.6,0,0,1,1.2-1.8,1,1,0,0,1,1.3-.2c.3.1.5.5.7,1a4.6,4.6,0,0,1-.5,2.1c-2.1,5-4.3,9.9-6.6,14.6a5.5,5.5,0,0,1-1.8,2.2,2,2,0,0,1-2-.1l-12.1-6.7c-.4-.2-.8-.4-.9-.9a1.9,1.9,0,0,1-.2-1.3,4.6,4.6,0,0,1,.7-1.6c2.1-4.2,4-8.4,5.8-12.8a3.1,3.1,0,0,1,1.1-1.6,1.4,1.4,0,0,1,1.2-.3,1.2,1.2,0,0,1,.7,1.1A2.8,2.8,0,0,1,615,631.8Z"/></g><g id="Layer_3-2" data-name="Layer 3"><polygon class="cls-1" points="711.8 779.7 721.7 767.3 675.3 727.4 636.3 777 711.8 779.7"/><polygon class="cls-4" points="709.5 781.8 723.3 766.7 675.8 727.6 631.5 782.2 709.5 781.8"/><path class="cls-4" d="M658.7,782.2l24-29.2c-9.5,0-14.7-4.9-17.1-12.8l-34.2,42Z"/><polygon class="cls-1" points="241.4 727.6 285.8 782.2 203.8 778.3 193.8 766.7 241.4 727.6"/><polygon class="cls-4" points="207.8 781.8 193.8 766.7 241.4 727.6 285.8 782.2 207.8 781.8"/><path class="cls-4" d="M258.6,782.2,234.7,753c9.5,0,14.6-4.9,17.2-12.8l34.1,42Z"/><polygon class="cls-2" points="197.5 775 719.8 775 648.6 853.1 264.1 853.1 197.5 775"/><polygon class="cls-1" points="213.4 781.8 705.5 781.8 648.6 845.2 264.1 845.2 213.4 781.8"/><polygon class="cls-2" points="692.8 786.5 646.5 839.3 267.7 839.3 224.9 786.5 692.8 786.5"/><path class="cls-5" d="M350.6,817.7a8.8,8.8,0,0,1-.7,3.2,12.4,12.4,0,0,1-2.3,3.2,9.3,9.3,0,0,1-3.9,2.6,12.6,12.6,0,0,1-5.4,1,15.3,15.3,0,0,1-4.3-.4,8.3,8.3,0,0,1-3.5-1.4,8.8,8.8,0,0,1-2.9-2.5,12.6,12.6,0,0,1-2.1-3.2,18.2,18.2,0,0,1-1.3-3.7,19.9,19.9,0,0,1-.4-4.2,20.8,20.8,0,0,1,1.1-6.6,15,15,0,0,1,3-4.8,12.5,12.5,0,0,1,4.5-3.1,16.5,16.5,0,0,1,5.8-1,13,13,0,0,1,6.4,1.4,11.7,11.7,0,0,1,4.4,3.6,7.3,7.3,0,0,1,1.5,4.1,2.3,2.3,0,0,1-.7,1.7,2.7,2.7,0,0,1-1.9.8,2.5,2.5,0,0,1-1.7-.4l-1.3-2a8.8,8.8,0,0,0-2.8-3.3,6,6,0,0,0-3.9-1.1,7.1,7.1,0,0,0-6,2.7c-1.5,2-2.2,4.7-2.2,8.2a19,19,0,0,0,.9,5.8,8.7,8.7,0,0,0,2.8,3.5,7.9,7.9,0,0,0,4.2,1.2,7.4,7.4,0,0,0,4.4-1.4,6.7,6.7,0,0,0,2.8-3.8,5,5,0,0,1,1-1.9,2.1,2.1,0,0,1,1.8-.7,2.6,2.6,0,0,1,1.9.7A2.5,2.5,0,0,1,350.6,817.7Z"/><path class="cls-5" d="M377.6,796.8a15.7,15.7,0,0,1,8,1.8,11.9,11.9,0,0,1,5,5.4,16.3,16.3,0,0,1,1.8,8.1,22.5,22.5,0,0,1-.9,6.4,14.9,14.9,0,0,1-2.8,4.9,12.9,12.9,0,0,1-4.7,3.3,16.7,16.7,0,0,1-6.3,1,15.3,15.3,0,0,1-6.3-1.1,13.2,13.2,0,0,1-4.6-3.2,11.8,11.8,0,0,1-2.8-5,16.6,16.6,0,0,1-.9-6.3,16.4,16.4,0,0,1,.9-6.2,13.2,13.2,0,0,1,2.9-5,12.5,12.5,0,0,1,4.5-3.1A16.5,16.5,0,0,1,377.6,796.8Zm8.6,15.3a14.3,14.3,0,0,0-1-5.7,8.7,8.7,0,0,0-3-3.6,8.3,8.3,0,0,0-4.6-1.2,6.7,6.7,0,0,0-3.4.7,7,7,0,0,0-2.6,1.9,12.4,12.4,0,0,0-1.8,3.4,14.1,14.1,0,0,0-.7,4.5,14.9,14.9,0,0,0,.7,4.7,9.6,9.6,0,0,0,1.9,3.4,7.1,7.1,0,0,0,2.7,2.1,7.5,7.5,0,0,0,3.3.7,10.2,10.2,0,0,0,4.2-1.2,8,8,0,0,0,3.2-3.6A14.1,14.1,0,0,0,386.2,812.1Z"/><path class="cls-5" d="M412,800.4v21.9h12.3a2.9,2.9,0,0,1,2.2.7,2.1,2.1,0,0,1,.8,1.7,2.1,2.1,0,0,1-.8,1.9,3.4,3.4,0,0,1-2.2.7H409.6a4,4,0,0,1-2.9-1,3.6,3.6,0,0,1-.8-2.7V800.4a4,4,0,0,1,.8-2.8,2.5,2.5,0,0,1,2.1-.8,2.7,2.7,0,0,1,2.3.8A4.7,4.7,0,0,1,412,800.4Z"/><path class="cls-5" d="M450.8,796.8a15.3,15.3,0,0,1,7.9,1.8,11.8,11.8,0,0,1,5.2,5.4,17.4,17.4,0,0,1,1.7,8.1,22.5,22.5,0,0,1-.9,6.4,15.9,15.9,0,0,1-2.9,4.9,12.6,12.6,0,0,1-4.6,3.3,16.7,16.7,0,0,1-6.3,1,16,16,0,0,1-6.4-1.1,12,12,0,0,1-4.5-3.2,13.2,13.2,0,0,1-2.9-5,21.8,21.8,0,0,1-.9-6.3,16.5,16.5,0,0,1,1-6.2,13,13,0,0,1,2.8-5,12.5,12.5,0,0,1,4.7-3.1A15.7,15.7,0,0,1,450.8,796.8Zm8.6,15.3a14.3,14.3,0,0,0-1-5.7,9,9,0,0,0-3.1-3.6,8,8,0,0,0-4.5-1.2,7.6,7.6,0,0,0-6,2.6,8,8,0,0,0-1.8,3.4,14.1,14.1,0,0,0-.7,4.5,14.9,14.9,0,0,0,.7,4.7,11.1,11.1,0,0,0,1.8,3.4,7.4,7.4,0,0,0,2.8,2.1,8.8,8.8,0,0,0,3.2.7,8,8,0,0,0,7.5-4.8A14.1,14.1,0,0,0,459.4,812.1Z"/><path class="cls-5" d="M489.2,822.7l-4.7-19.1v20.8a4.4,4.4,0,0,1-.8,2.5,2.8,2.8,0,0,1-4,0h0a3.3,3.3,0,0,1-.8-2.5V800.6a2.8,2.8,0,0,1,1-2.7,5.5,5.5,0,0,1,2.8-.7h1.9a6.7,6.7,0,0,1,2.4.4,2.4,2.4,0,0,1,1.2,1c.2.6.5,1.4.8,2.6l4.3,16.5,4.4-16.5a13.4,13.4,0,0,1,.9-2.6,1.6,1.6,0,0,1,1.1-1,6.9,6.9,0,0,1,2.5-.4H504a5.3,5.3,0,0,1,2.8.7,3.2,3.2,0,0,1,1.1,2.7v23.8a4.4,4.4,0,0,1-.8,2.5,2.6,2.6,0,0,1-2.1.8,2.2,2.2,0,0,1-2-.8,3.7,3.7,0,0,1-.7-2.5V803.6l-4.9,19.1c-.2,1.2-.6,2.1-.7,2.7a2.8,2.8,0,0,1-1.2,1.6,2.6,2.6,0,0,1-2.2.7,2.5,2.5,0,0,1-1.7-.4,3.4,3.4,0,0,1-1.2-1.2l-.7-1.6A6.1,6.1,0,0,0,489.2,822.7Z"/><path class="cls-5" d="M535.2,827.3H526a3.2,3.2,0,0,1-3.6-2.6,2,2,0,0,1,0-1.1V801a4.1,4.1,0,0,1,.8-2.9,3.7,3.7,0,0,1,2.8-.9h9.8l3.7.3a8.5,8.5,0,0,1,2.8,1,6.1,6.1,0,0,1,1.9,1.7,5.7,5.7,0,0,1,1.3,2.1,5.3,5.3,0,0,1,.4,2.5c0,2.9-1.5,5.1-4.5,6.5,3.9,1.3,5.9,3.7,5.9,7.4a7.4,7.4,0,0,1-1.3,4.5,7.6,7.6,0,0,1-3.4,3l-3.2.8Zm-6.7-25.5v7.8h5.6a8.7,8.7,0,0,0,3.5-.5,2.8,2.8,0,0,0,1.8-1.6,3.6,3.6,0,0,0,.6-2,2.8,2.8,0,0,0-1.6-2.9,12.2,12.2,0,0,0-5-.8Zm6.3,12.1h-6.3v8.7H535c4.1,0,6.2-1.4,6.2-4.4a4,4,0,0,0-1.7-3.3,8.5,8.5,0,0,0-4.7-1Z"/><path class="cls-5" d="M574.1,796.8a15.7,15.7,0,0,1,8,1.8,13.5,13.5,0,0,1,5.2,5.4,17.4,17.4,0,0,1,1.7,8.1,19.5,19.5,0,0,1-1,6.4,13.9,13.9,0,0,1-2.8,4.9,15,15,0,0,1-4.6,3.3,16.7,16.7,0,0,1-6.3,1,15.7,15.7,0,0,1-6.4-1.1,12.3,12.3,0,0,1-4.6-3.2,13,13,0,0,1-2.8-5,21.8,21.8,0,0,1-.9-6.3,16.5,16.5,0,0,1,1-6.2,12.2,12.2,0,0,1,7.4-8.1A16,16,0,0,1,574.1,796.8Zm8.7,15.3a14.3,14.3,0,0,0-1-5.7,8.6,8.6,0,0,0-3.2-3.6,7.8,7.8,0,0,0-4.5-1.2,6.6,6.6,0,0,0-3.3.7,7,7,0,0,0-2.6,1.9,8,8,0,0,0-1.8,3.4,14.1,14.1,0,0,0-.7,4.5,14.9,14.9,0,0,0,.7,4.7,11.1,11.1,0,0,0,1.8,3.4,8.9,8.9,0,0,0,2.6,2.1,10.3,10.3,0,0,0,3.4.7,8.1,8.1,0,0,0,7.5-4.8A15.7,15.7,0,0,0,582.8,812.1Z"/></g><g id="Layer_4" data-name="Layer 4"><path class="cls-2" d="M303.1,431.7H603.9q29.4,203.1-144.5,278.2Q282.1,650.4,303.1,431.7Z"/><path class="cls-1" d="M307.9,436.5H599.7q28.6,191.4-140.3,268.7Q288,645.7,307.9,436.5Z"/><path class="cls-2" d="M364.5,545.3l-4.3,80.9,68.3-.5c-4.1,10.2-9.6,17.5-16.5,25.9,1.1,4.2,3.7,6,7.1,6,8.1-10.4,13.1-19.5,18.3-30a94.5,94.5,0,0,1,17.7,20.2l1.2,30a6.4,6.4,0,0,0,6.2,4.8,10.1,10.1,0,0,0,5.3-6.5c.5-7.7.8-18,1-29.5l16.3-22.9a311.2,311.2,0,0,1,16.6,28.5,7.4,7.4,0,0,0,7.7.6c1.6-1.5,2.1-3.7,1.5-6.4a101,101,0,0,1-16.4-25l60,2.9-5.3-83.8a251.2,251.2,0,0,1-28.5-28c10.4-5.4,26.6,7.4,28.1,6-1-12.4,1.4-16.8,13.4-9.9,7.1,1.8,12.5.8,14.9-5.5-1.8-9.3,3.1-14.4,9.7-20,3.6-7.8,1.3-16.1-12.6-20.5-3.8-2.3-8.5-7.8-13.7-15.4-7.8-1.8-13.1,2.5-16.1,12.5-7.2-1.3-11.7-1.8-17.4-.4-5.3,8.3-5,16.4,1.4,21.8-4.9,6-11.7,11.1-19,15.8a123.2,123.2,0,0,1-32.1,0,19.5,19.5,0,0,0-7.1,8.5,4.1,4.1,0,0,1-4.8-1.1,13.4,13.4,0,0,1,.6-7.4,14.8,14.8,0,0,1,6.8-2.2c4-5.6,7.8-10.1,11-11.3,7.8-4.3,9.2-10.9,3-20.2-3.3-1.5-5.9-4.5-7.1-11.9-5-9.7-12.6-7.6-21.1-.6-3.6-.5-7.4-2.8-14.1-3.5-4.4,2-5.9,5.8-5.9,10.6-8.8,4.8-11.6,11.8-5.8,19s12.3,9.9,16.5,9.4,4.9,5.7,4.7,19.8c-6.5,1.1-13.5-1.7-21.3-9.1a55,55,0,0,0-17.8,5.5c-11.7-3.5-23.6-9.7-35.5-18.7,5.9-8.2,4-14.8-4.3-16.9-2.1-.5-3.8-3-4.8-9-6.5-7.8-13.3-5.2-20.3,4.2-15.6-4.1-21.5.4-17.7,10.6-3.8,17-3,28.1,8.3,26.9,7.9-.4,15,1,20.1-.4a38.2,38.2,0,0,1-8.2,21.8c-.5,3.8.7,6.3,2.9,7.7,8.4-3.9,12.9-12.9,14.3-26.2,18.2-1.7,29.6.6,35.6,6.2-8.2,2.8-17.4,2.5-27.3,0-1.8,5.7-1.1,8.9,2.4,9.9a26.1,26.1,0,0,0,12.5-2.9Z"/><path class="cls-1" d="M350.7,468.9c-4.6-3.5-8.7-3.3-12.3,0a5.6,5.6,0,0,0,.3,6.3c-1.2,8.1-1.6,14.4-.3,17.3,8.4.9,12.2-.1,12.3-1.6h11.5c1.3,2.7,9.4,5.1,16.1,7s9.7,1.2,12.7,0c.3-3.4-9.5-7.8-19.2-12.4.7-1.4.6-3.4-.5-6,1.9.3,2.6-1.3,2.4-4.7a11.4,11.4,0,0,0-6.3-3.5c-1-2.5-1.8-5.2-2.7-8s-4.3-3.2-7.9-1.3A30.8,30.8,0,0,1,350.7,468.9Z"/><path class="cls-2" d="M346.4,479a15.3,15.3,0,0,1,9.8-7c2.9.5,4.9,2.1,4.9,5.8s-2,4.8-5.5,6.2S348.2,484.4,346.4,479Z"/><path class="cls-1" d="M446.4,467.2c-1.6-10.1,1.9-14.3,12.1-10.7,10.4-4.7,16.3-3,15.4,4.5,11.4,8.3,11,13.6,3.5,16.8l-7.4,9.8c-3.1,1.3-6.1.7-9.2-1.2l-8.5-5.3c-6.2-.2-9.7-3.3-11.5-7.9A11.7,11.7,0,0,1,446.4,467.2Z"/><path class="cls-2" d="M463.9,462.9a30.2,30.2,0,0,0-8.4,8.3c.9,4.9,3.5,8.1,8.4,7.9,5,1.5,8,.9,9-2.2-.9-.8-1.6-4-4.7-11.6C467.9,464.2,466.3,463.4,463.9,462.9Z"/><path class="cls-1" d="M536,486.4c-3.9-7.9-5.8-13.7-4.4-16.2,4-3.1,8.6-4.5,12.8-2.3,3.9-2.1,4.9-7.8,7.4-8.8a4.5,4.5,0,0,1,6.5-.5,2.9,2.9,0,0,1,1,1.2c7.4,8,11.5,11.6,16.1,11.3,6.5,4.3.2,10.8-4.1,16-.1,9.6-2.2,15.2-7,15.5s-7.3-1.9-10.8-4.7c-5.8,2.6-11.6,5-16.5,3.7S533,493.9,536,486.4Z"/><path class="cls-2" d="M555.6,473.6c-6.3,1.4-9.6,4.7-10.3,9.7,1.8,2.8,4.9,4.5,10.3,4.4s8.1-.7,8.6-5.3A17.6,17.6,0,0,0,555.6,473.6Z"/><path class="cls-1" d="M520.2,496.9q-6.6,3-8.7,8.4c1.6,2,4.4,2.7,8.7,1.3S526.1,500.5,520.2,496.9Z"/><path class="cls-1" d="M393.6,519.5c16.1-5.6,39-3.8,58.3,6.8v78.6c-22.5-5.2-44.6-10.1-61.7-6Z"/><path class="cls-1" d="M457.5,525.7l2.3,78.5c15.8-6.2,37.9-7.6,61.5-7.9L517.9,520C494.6,517.8,471.4,515.7,457.5,525.7Z"/><path class="cls-2" d="M410.2,553.6h-6v3.9h5l1,.2a1.5,1.5,0,0,1,.4.9,1.2,1.2,0,0,1-.4.8l-1,.3h-5v5a2.5,2.5,0,0,1-.4,1.4,2.1,2.1,0,0,1-1.2.4,1.8,1.8,0,0,1-1-.4,2.4,2.4,0,0,1-.5-1.4V553.1a2.6,2.6,0,0,1,.3-1.1,1,1,0,0,1,.5-.6h8.3l1.1.2a1.7,1.7,0,0,1,.3,1,1.1,1.1,0,0,1-.3.8A1.5,1.5,0,0,1,410.2,553.6Z"/><path class="cls-2" d="M414.2,564.7V552.8a2.3,2.3,0,0,1,.4-1.4,1.5,1.5,0,0,1,2.2,0,2.4,2.4,0,0,1,.5,1.4v11.9a2.4,2.4,0,0,1-.5,1.4,1.7,1.7,0,0,1-2.2,0A2.3,2.3,0,0,1,414.2,564.7Z"/><path class="cls-2" d="M430.5,564.6l-.7-1.9h-6.2l-.7,1.9a5.1,5.1,0,0,1-.7,1.5.9.9,0,0,1-.9.4,1.2,1.2,0,0,1-1.1-.4,1.3,1.3,0,0,1-.4-1c0-.2.1-.4.1-.7l.3-.8,3.9-9.8.3-1,.6-.9a.9.9,0,0,1,.6-.6,1.8,1.8,0,0,1,1-.4,2.8,2.8,0,0,1,1.2.4,1.7,1.7,0,0,1,.6.6,2,2,0,0,1,.4.8,5.4,5.4,0,0,1,.5,1.1l4,9.7a9.4,9.4,0,0,1,.4,1.6,1.8,1.8,0,0,1-.4,1,1.5,1.5,0,0,1-1.1.4h-.6l-.4-.3-.4-.7Zm-6.1-4.2h4.5l-2.3-6.2Z"/><path class="cls-2" d="M444.1,553.7h-3.4v11a3.5,3.5,0,0,1-.3,1.4,2.8,2.8,0,0,1-1.2.4,1.5,1.5,0,0,1-1.1-.4,1.8,1.8,0,0,1-.4-1.4v-11h-3.3a1.1,1.1,0,0,1-1.1-.3,1.2,1.2,0,0,1-.5-.9,1.1,1.1,0,0,1,.5-.9,1.4,1.4,0,0,1,1.1-.3h9.7a2,2,0,0,1,1.1.3,1,1,0,0,1,.4.9,1.2,1.2,0,0,1-.4.9A2,2,0,0,1,444.1,553.7Z"/><path class="cls-2" d="M472.2,552v10.9h6.2a1.5,1.5,0,0,1,1.1.4.8.8,0,0,1,.4.9c0,.3-.1.7-.4.8a1.5,1.5,0,0,1-1.1.4h-7.3a1.6,1.6,0,0,1-1.9-1.1,1.1,1.1,0,0,1,0-.8V552a2.3,2.3,0,0,1,.4-1.4,1.5,1.5,0,0,1,2.2,0A2.3,2.3,0,0,1,472.2,552Z"/><path class="cls-2" d="M481.1,559.2V552a3.2,3.2,0,0,1,.3-1.4,3.1,3.1,0,0,1,1.2-.5,1.6,1.6,0,0,1,1.1.5,1.8,1.8,0,0,1,.4,1.4v7.4a7.6,7.6,0,0,0,.3,2.1,3.2,3.2,0,0,0,1,1.3,4.6,4.6,0,0,0,2,.5,3,3,0,0,0,2.5-1,4.1,4.1,0,0,0,.7-2.9V552a2.4,2.4,0,0,1,.5-1.4,1.6,1.6,0,0,1,1.1-.5,2.2,2.2,0,0,1,1.1.5,2.3,2.3,0,0,1,.4,1.4v7.2a9.2,9.2,0,0,1-.4,2.9,3.6,3.6,0,0,1-1.3,2.1,5.7,5.7,0,0,1-1.8,1.2,11.5,11.5,0,0,1-2.6.3,15.4,15.4,0,0,1-3-.4,5.1,5.1,0,0,1-3.2-3.2A13.6,13.6,0,0,1,481.1,559.2Z"/><path class="cls-2" d="M496.7,562.5l3.3-4.9-2.8-4.3a3.4,3.4,0,0,1-.6-1.2,2.6,2.6,0,0,1-.3-.8.9.9,0,0,1,.5-.8,1.2,1.2,0,0,1,1.9.1l.9,1.3,2.3,3.7,2.4-3.7.5-.7.4-.6.5-.4h.5a1.8,1.8,0,0,1,1,.4,1.1,1.1,0,0,1,.3.8,2.7,2.7,0,0,1-.8,1.9l-2.9,4.4,3.1,4.9a2.4,2.4,0,0,1,.6,1.1,1.1,1.1,0,0,1,.3.7,1.4,1.4,0,0,1-.2.7.8.8,0,0,1-.5.5.7.7,0,0,1-.7.2l-.7-.2a.8.8,0,0,1-.5-.5l-.7-1-2.7-4.1-2.8,4.2-.4.8c-.2.1-.2.3-.4.4l-.5.3h-.5a1.7,1.7,0,0,1-1-.3,1.4,1.4,0,0,1-.3-1.1A3,3,0,0,1,496.7,562.5Z"/></g><g id="Layer_5" data-name="Layer 5"><polygon class="cls-2" points="362.8 406.7 374.5 423.7 395 423.7 382.2 406.7 362.8 406.7"/><polygon class="cls-2" points="387.5 406.7 399.1 423.7 419.6 423.7 406.8 406.7 387.5 406.7"/><polygon class="cls-2" points="413.1 406.7 424.8 423.7 445.2 423.7 432.4 406.7 413.1 406.7"/><polygon class="cls-2" points="438.5 406.7 450 423.7 470.6 423.7 457.8 406.7 438.5 406.7"/><polygon class="cls-2" points="464.2 406.7 475.9 423.7 496.3 423.7 483.5 406.7 464.2 406.7"/><polygon class="cls-2" points="489.4 406.7 501 423.7 521.5 423.7 508.7 406.7 489.4 406.7"/><polygon class="cls-2" points="515.2 406.7 526.7 423.7 547.2 423.7 534.5 406.7 515.2 406.7"/><path class="cls-2" d="M402.1,404.6a68.2,68.2,0,0,0,22.5,1.9c4.3-2.3,4.8-8.6,3.6-16.7,2.3,8.8,5.2,15.1,9.6,16.7,7,.6,13.7.6,19.7-1.2s3.8-8.5,0-14.3c-3.9-2.6-8.2-8-12.6-15.5a11.9,11.9,0,0,1,7,0c5.2,4.1,11.5,4.3,18.3,2.7a69.8,69.8,0,0,1-3.9,19.1c.1,7.4,3.9,10.3,10.7,9.2,10,.6,16.1-.7,15.2-5.1V389.8c4.5,8.9,8,14.4,10.3,16.7a22.8,22.8,0,0,0,18.8,0c4.8-1.8,3.2-8.3-1.2-17-3.6-4.4-5.7-12.4-7.1-21.7,5.7,1.4,8.6-1.6,6.7-12.2-2.4-36.3-21.8-51.6-51.3-54.1-10.5,3-20.4,4.8-29.2,4.2-11.4-6.1-20.4-5.4-27.2,1.5-8.7-11.2-18.8-12.2-30.7-.9-4.3,7.3-8.6,12.5-12.8,14.9-10.4,10.7-11.7,23.5-10.4,36.9-4.9,2.2-13.9,1.7-25.9-.4,5.5,8.3,12.5,14.8,26.2,12.8-.8,17.8,10,25.7,27.9,27.4,5.9-2.1,8.4-7.9,8.1-17-2.5-1.1-7,.4-10.4,3.6a13.3,13.3,0,0,1-6-4.4c-1.6-2.7-2.4-8.1-2.7-15.5,2.9-.3,5.8-1.7,8.9-4.8,6.2,1.1,12.6-.7,19.4-4.4,5.8,4.3,9.9,9.1,10.9,14.2C402.2,381.1,399.4,392.9,402.1,404.6Z"/><path class="cls-1" d="M379.2,358.1c-3.9,4.7-10.1,7.6-18.1,9.2-9.9-.4-15.4-2.3-19-4.7,6.6,0,13.2.5,18.5,0C369.2,358.4,376.2,354.1,379.2,358.1Z"/><path class="cls-1" d="M388.6,386.3c-.3,3-1.3,5.7-4.6,7-11.7-.1-19.5-7.3-22.9-22.8l8.9-2.3c.5,5.1,1.8,10.2,6.2,14.8S386,386.1,388.6,386.3Z"/><path class="cls-1" d="M407.3,351.8c3.3-3.3,3.8-8.6,5.1-11.8,3.2,2.2,5.8,4.4,7.2,6.8a7.7,7.7,0,0,1,5.2-2.8c11.5,8.9,15.4,16.9,19,24.6-3,7.3-8.9,12.7-17.3,16.6-3,4.2-4.1,9.9-3.3,17-7.3,1.6-13.7,1.5-18.9-.7,1.7-13.3,5.4-21.6,10.9-25.3,2.2-3.9,1.9-8.8.1-14.8C412.5,358.4,410.3,354.9,407.3,351.8Z"/><path class="cls-1" d="M442.1,378.4l-10.5,7c1.3,6.4,3.3,12.1,6.5,16.8,6.4,1.5,12.6,1.8,18.2-.6C456.5,394.1,449.7,387.4,442.1,378.4Z"/><path class="cls-1" d="M473.5,377.5c-.2,9.9-.9,14.7-3.3,18.7-.7,4.6.8,6.8,4.1,7.1h11.5c2.4-.4,3.7-2.4,3.9-5.8a22.3,22.3,0,0,1,.7-12,14.5,14.5,0,0,0-6.2-8Z"/><path class="cls-1" d="M505.1,402.6c1.3,1.4,6,1.4,13,.7a9.3,9.3,0,0,0,0-7.3c-1.9-2.8-3.9-7.3-7.3-12.6a118.7,118.7,0,0,1-2.4-26.6c3.1,0,5.3,1.7,7.2,4.6.6-15.6-5.4-29.8-10.5-36.5-7-11.9-20.3-17.9-39.1-18.8a81.7,81.7,0,0,0-28.2,4.1c-1.4,14.1-11.3,23.9-11.3,29.8,10.9,9.3,20.6,31.7,29.8,33.9h28.5A111.4,111.4,0,0,1,505.1,402.6Z"/><path class="cls-1" d="M434.3,309.1c0,16.7-11.8,22.9-11.2,32.1-3.8.6-7.1-1.4-9.9-6.5a23.6,23.6,0,0,1-5.6,5.3c1.7,5.4-.9,9.1-7.1,11.7s-14.6,5.3-19.4,3.8a11.6,11.6,0,0,1,4.4-5.8,15.1,15.1,0,0,0-5.2-4.2c-4.3,7.4-10.4,11.7-18.4,12.4-1.2-10.3.2-20.4,6.2-29.5,1.1-4.7,11.5-11.4,16.5-18.3,5.8-10.4,20.5-10.6,24.6,2.1,2.3,1.7,3.7.9,5.2-1.2s2.3-3.5,4.8-4.9C426.7,304.2,431.6,305.3,434.3,309.1Z"/><path class="cls-2" d="M384.2,327.8c-6.1-.4-9.8,2.4-9.4,9.5a29.8,29.8,0,0,0,8.4.6C385.7,334.6,386,331.2,384.2,327.8Z"/></g><g id="Layer_6" data-name="Layer 6"><polygon class="cls-2" points="437.2 274.6 437.2 302.5 467 302.5 467 273.7 485.3 273.7 485.3 245.6 466.5 245.6 466.5 225.5 437.2 225.5 437.2 245.6 417.4 245.7 417.4 274.6 437.2 274.6"/><polygon class="cls-1" points="444 232.8 459.7 232.8 459.7 252.7 479.6 252.7 479.7 268.1 459.4 268.2 459.4 296.1 444 296.1 444 268.2 424.1 268.2 424.1 252.9 444 252.9 444 232.8"/><polygon class="cls-2" points="426.5 247.5 367.4 221.6 361.5 225.5 419.9 251 426.5 247.5"/><polygon class="cls-2" points="420.1 254.8 273.7 254.8 275.8 260.5 420.1 260.5 420.1 254.8"/><polygon class="cls-2" points="421 265.6 293.7 305.3 289.5 302.5 420.1 262 421 265.6"/><polygon class="cls-2" points="426.5 273.4 310.3 335 306.1 335 306.1 331.3 424.1 270.8 426.5 273.4"/><path class="cls-2" d="M464.6,244.1c.5,0,66.5-31.3,66.5-31.3l7.4,1.1-71.1,33.6Z"/><polygon class="cls-2" points="483.2 249.5 561.1 225.5 562.7 230.1 483.2 252.6 483.2 249.5"/><rect class="cls-2" x="483.2" y="258.9" width="165.4" height="5.04"/><polygon class="cls-2" points="483.2 266.7 618.3 326.9 617.8 330.2 612.3 329.3 482.3 270.8 483.2 266.7"/><polygon class="cls-2" points="473.9 272 588.3 360.4 589.2 364.1 584.9 364.1 464.6 270.8 473.9 272"/></g><g id="Layer_7" data-name="Layer 7"><path class="cls-2" d="M228.8,284.3q93.6-75,226-75.5c82.9-2.1,157.7,25.6,227.6,71.4L636,338l60.6,40.4c13.8,9.2-3.1,28.8-17.9,9.3l-3.4,3.2c4.3,8,10.3,12,17.8,12.9,9.6-1.6,15.4-7.1,16-17.8a30.3,30.3,0,0,0-11.8-17.8l-.7-35.4,40.1-1.3,50.9-63c-81.4-82-185.1-136.1-328.3-141.2-128.5-1.9-238.4,43.3-328.6,138.3l46.6,65.9h37.1v30.6c-8.8,4.6-13.7,11.4-12.9,21.6,2.9,7.5,8.4,11.4,15.5,13.1,7.5-2.3,12.7-5.9,14.8-11.4-.6-3.4-2.1-5.8-4.8-6.9-14.1,21.3-25.5-1.4-11.3-6.2L269.4,334Z"/><polygon class="cls-1" points="219.8 332.9 257.8 332.9 219.7 358.9 219.8 332.9"/><path class="cls-1" d="M221.6,287.5c-17.5,13.6-30.1,27.8-37,39.6l72,1.6Z"/><path class="cls-2" d="M221.5,300a115.1,115.1,0,0,0-19.4,18.8h36.1Z"/><path class="cls-1" d="M138.1,265.6l41.2,57.5c59.6-67,138.7-118.2,277-121.1,102.8.9,196.7,38.5,280.9,117.4l41.1-49.6c-85.1-88.9-191.9-135.5-322-136.3C324.6,135.8,219.2,180.9,138.1,265.6Z"/><path class="cls-2" d="M147.4,267l31.5,45.9c67.8-71.1,157.5-113.4,275.7-118.4,115.9,2.8,208,44.7,282.5,115l32-40C690.3,189.3,587,143.9,454.6,139.9,331.5,141.3,229.4,184.2,147.4,267Z"/><path class="cls-1" d="M686.7,283.7a239.1,239.1,0,0,1,46.8,42.5c-26.6,1.2-54.1,2.3-82.7,3.2Z"/><polygon class="cls-1" points="648.7 335 689.3 333.6 689.3 364.3 648.7 335"/><path class="cls-2" d="M690.6,295.3l-19.7,23.5,44.3-1.5A190.4,190.4,0,0,0,690.6,295.3Z"/><path class="cls-1" d="M222.1,246.8a8.4,8.4,0,0,1,1.5,5.3,9.3,9.3,0,0,1-2,5.8,21.3,21.3,0,0,1-5.6,5.6,19.7,19.7,0,0,1-8.1,3.9,14.1,14.1,0,0,1-5.4-.4,6.7,6.7,0,0,1-3.8-2.4,3.6,3.6,0,0,1-.5-2.2,3.4,3.4,0,0,1,1.4-2.1,3.1,3.1,0,0,1,2-.7,3.9,3.9,0,0,1,2.3.7,10.8,10.8,0,0,0,2.8,1.1,4.8,4.8,0,0,0,2.9,0,8.8,8.8,0,0,0,3.5-1.7,9,9,0,0,0,3.5-4.2,3.8,3.8,0,0,0-.2-4,3.3,3.3,0,0,0-2.5-1.5,7,7,0,0,0-3.2.5,22.5,22.5,0,0,0-4.5,1.9,37.1,37.1,0,0,1-6.6,2.4,10.6,10.6,0,0,1-5.3.2,6.9,6.9,0,0,1-4.2-2.6,8.1,8.1,0,0,1-1.5-4.9,11.3,11.3,0,0,1,2.1-5.6,25,25,0,0,1,11.1-8.5,12.7,12.7,0,0,1,4.7-.9,8.5,8.5,0,0,1,3.5.8,6.2,6.2,0,0,1,2.2,1.7,3.5,3.5,0,0,1,.4,2.2,3.6,3.6,0,0,1-1.6,2.2,2.6,2.6,0,0,1-1.9.7l-2.3-.7a11.2,11.2,0,0,0-3.7-.9,8.1,8.1,0,0,0-4.4,2,9.1,9.1,0,0,0-3.3,3.7c-.5,1.4-.5,2.5.2,3.3a2.1,2.1,0,0,0,1.5,1,3.8,3.8,0,0,0,2.1-.1l2.2-.6,3.5-1.5c1.9-.9,3.8-1.6,5.4-2.2a20.3,20.3,0,0,1,4.8-.9,7.7,7.7,0,0,1,3.9.7A9.5,9.5,0,0,1,222.1,246.8Z"/><path class="cls-1" d="M238.4,216.4l-7.3,4.2,12.2,20.2a4.6,4.6,0,0,1,.7,3.2,4.1,4.1,0,0,1-4.6,2.7,5.2,5.2,0,0,1-2.4-2c-4.1-6.8-8.3-13.4-12.5-20l-7.1,4.4a3.8,3.8,0,0,1-2.9,1,2.4,2.4,0,0,1-2.2-2.6,1.7,1.7,0,0,1,.1-.7,5.2,5.2,0,0,1,2.1-2.3c6.9-4.5,14-8.8,21.1-12.9a4.7,4.7,0,0,1,3-.8,2.6,2.6,0,0,1,1.9,1.3,2.8,2.8,0,0,1,0,2.2A5.3,5.3,0,0,1,238.4,216.4Z"/><path class="cls-1" d="M274.8,195.4l7,15.5a36.6,36.6,0,0,1,1.4,3.6,11.9,11.9,0,0,1,.5,3.2,9.6,9.6,0,0,1-1.9,5.4,14,14,0,0,1-5.5,4.4,16.2,16.2,0,0,1-5.8,1.7,8.9,8.9,0,0,1-5-1.3,15,15,0,0,1-2.4-1.8,11.5,11.5,0,0,1-1.9-2.6,3,3,0,0,1-.2-2.6,3.2,3.2,0,0,1,1.8-1.8,2.9,2.9,0,0,1,2.4-.4,6.1,6.1,0,0,1,1.9,1.7l2,2a6.7,6.7,0,0,0,2.1,1,6.4,6.4,0,0,0,2.8-.6c2.8-1.4,3.4-4.1,1.5-7.9l-7.7-16.2a4.2,4.2,0,0,1-.3-3.1,3.4,3.4,0,0,1,2.1-2.1,3.9,3.9,0,0,1,3-.4A4.5,4.5,0,0,1,274.8,195.4Z"/><path class="cls-1" d="M295.4,182.4a23.5,23.5,0,0,1,10.2-1.6,13.9,13.9,0,0,1,7.9,3.5,19.2,19.2,0,0,1,4.9,7.6,23.7,23.7,0,0,1,1.1,6.9,18.1,18.1,0,0,1-1.4,6.1,16.1,16.1,0,0,1-3.9,5.1,22.7,22.7,0,0,1-6.4,3.7,23.9,23.9,0,0,1-7.4,1.6,14.5,14.5,0,0,1-6.2-1.1,16.1,16.1,0,0,1-5.3-3.6,21.5,21.5,0,0,1-3.8-5.8,20.6,20.6,0,0,1-1.7-6.8,15.1,15.1,0,0,1,1.3-6.3,14.9,14.9,0,0,1,4-5.3A25.3,25.3,0,0,1,295.4,182.4Zm15.9,12a14.7,14.7,0,0,0-3.3-5.5,8.3,8.3,0,0,0-4.9-2.3,11.4,11.4,0,0,0-5.8.7,13.4,13.4,0,0,0-3.6,2.2,8.3,8.3,0,0,0-2.2,3.3,9.8,9.8,0,0,0-.6,4.2,13.6,13.6,0,0,0,1.2,4.8,12.9,12.9,0,0,0,2.5,4.4,11,11,0,0,0,3.5,2.6,9.9,9.9,0,0,0,3.7.8,8,8,0,0,0,4-.8,11.3,11.3,0,0,0,4.3-2.9,9,9,0,0,0,2.1-5A14.5,14.5,0,0,0,311.3,194.4Z"/><path class="cls-1" d="M351.5,188.8a9.7,9.7,0,0,1-.2,5.6,11.7,11.7,0,0,1-3.7,4.8,18.5,18.5,0,0,1-6.8,3.2,16.7,16.7,0,0,1-8.6.8,11.1,11.1,0,0,1-4.8-2.2,8.1,8.1,0,0,1-2.8-3.5,3.1,3.1,0,0,1,2.3-3.8,2.1,2.1,0,0,1,1.9.1,4.8,4.8,0,0,1,2,1.4,10.4,10.4,0,0,0,2.1,2.1,6.2,6.2,0,0,0,2.7.9,7.8,7.8,0,0,0,3.7-.3,9.1,9.1,0,0,0,4.6-2.8,3.7,3.7,0,0,0,1-3.7,4.6,4.6,0,0,0-1.7-2.4,11.4,11.4,0,0,0-3.2-.7l-4.8.3a50,50,0,0,1-6.7.1,12.3,12.3,0,0,1-4.9-1.6,7.9,7.9,0,0,1-3-4,8.1,8.1,0,0,1,.1-5.1,11.8,11.8,0,0,1,3.7-4.6,21.5,21.5,0,0,1,6.9-3.1,14.9,14.9,0,0,1,5.9-.9,12,12,0,0,1,4.6.7,9.5,9.5,0,0,1,3,1.9,7.2,7.2,0,0,1,1.4,2.4,3.5,3.5,0,0,1-.4,2.2,3,3,0,0,1-2.1,1.5,3.1,3.1,0,0,1-1.9,0,5.2,5.2,0,0,1-1.9-1.4,7.2,7.2,0,0,0-3.1-2.1,7.5,7.5,0,0,0-4.7.2,10,10,0,0,0-4.2,2.5,3,3,0,0,0-.8,3.1,2.1,2.1,0,0,0,1,1.4,4.4,4.4,0,0,0,1.9.7h2.3l3.6-.2h5.7a24.2,24.2,0,0,1,4.7.7,8.4,8.4,0,0,1,3.3,2.1A7.3,7.3,0,0,1,351.5,188.8Z"/><path class="cls-1" d="M376.3,165.3c-5.4,1-11,2.1-16.5,3.4l1.7,7.8,14.9-3.2a4.2,4.2,0,0,1,2.7.3,2.1,2.1,0,0,1,1.1,1.6,1.7,1.7,0,0,1-.5,1.8,3.1,3.1,0,0,1-2.3,1.2l-14.7,3c.7,3.1,1.4,6.1,2,9.1,5.5-1.3,10.8-2.3,16.3-3.4a3.5,3.5,0,0,1,2.5.4,2,2,0,0,1,1.2,1.6,2.3,2.3,0,0,1-.5,2.1,3.5,3.5,0,0,1-2.3,1.2c-6.3,1-12.4,2.3-18.7,3.8a4.5,4.5,0,0,1-3.4-.2,3.8,3.8,0,0,1-1.7-2.7c-1.9-7.9-3.9-15.8-5.7-23.7a4,4,0,0,1-.2-2.4,3.1,3.1,0,0,1,1.2-1.6,5.6,5.6,0,0,1,2.4-1c6.6-1.6,13.1-2.9,19.6-4.1a4.5,4.5,0,0,1,2.8.2,2.4,2.4,0,0,1,1.2,1.6,2.3,2.3,0,0,1-.6,2A3.9,3.9,0,0,1,376.3,165.3Z"/><path class="cls-1" d="M401.6,176.2l-6.6,1,1.4,9a5.9,5.9,0,0,1-.6,3.2,3.6,3.6,0,0,1-2.4,1.3,3,3,0,0,1-2.6-.6,4.2,4.2,0,0,1-1.4-2.7c-1.4-8.3-2.7-16.5-4.1-24.8a3.7,3.7,0,0,1,.6-3.2,5.2,5.2,0,0,1,3.5-1.4c3.1-.6,6.4-1.1,9.5-1.4a24.4,24.4,0,0,1,6.6-.3,12.3,12.3,0,0,1,4.2,1.4,7.1,7.1,0,0,1,2.8,2.9,10.4,10.4,0,0,1,1.3,4.1,9,9,0,0,1-2.7,7.8C409.2,174.5,405.9,175.7,401.6,176.2Zm-3.8-14.5-4.9.7,1.4,9.8,4.8-.6a14.4,14.4,0,0,0,4.2-1.1,4.6,4.6,0,0,0,3.1-4.9,4.9,4.9,0,0,0-1.9-3.3C403.3,161.5,401.1,161.2,397.8,161.7Z"/><path class="cls-1" d="M426,157.3l.7,9.3,15.7-.8c0-3.1-.1-6.2-.2-9.4a4,4,0,0,1,.9-3,3.4,3.4,0,0,1,2.7-1,3.7,3.7,0,0,1,2.8.9,3.8,3.8,0,0,1,1.1,3c.1,8.5.2,17,.4,25.6a4.5,4.5,0,0,1-1,3.1,3.7,3.7,0,0,1-2.5,1,3.8,3.8,0,0,1-2.5-.9,4.1,4.1,0,0,1-1.1-3l-.3-11-15.6.8c.2,3.6.6,7.2.8,11a4.7,4.7,0,0,1-.8,3,3.3,3.3,0,0,1-2.5,1.2,2.9,2.9,0,0,1-2.5-.9,3.9,3.9,0,0,1-1.3-2.9c-.7-8.5-1.4-17-2.2-25.5a3.8,3.8,0,0,1,.8-3,4.3,4.3,0,0,1,2.6-1.3,5.2,5.2,0,0,1,2.9.9A3.4,3.4,0,0,1,426,157.3Z"/><path class="cls-1" d="M483.7,176.4a9.1,9.1,0,0,1-2,5.2,10.4,10.4,0,0,1-4.9,3.4,18.9,18.9,0,0,1-7.5,1,17,17,0,0,1-8.3-2,9.2,9.2,0,0,1-3.8-3.5,7.6,7.6,0,0,1-1.5-4.1,3,3,0,0,1,.8-2.1,3.6,3.6,0,0,1,2.4-.9,3.1,3.1,0,0,1,1.9.6,5.7,5.7,0,0,1,1.3,2.1,21.5,21.5,0,0,0,1.4,2.6,7.2,7.2,0,0,0,2.2,1.7,9.4,9.4,0,0,0,3.6.8,10.4,10.4,0,0,0,5.2-1.1,4.7,4.7,0,0,0,2.2-3.4,3.9,3.9,0,0,0-1.1-2.7,6.1,6.1,0,0,0-2.7-1.6l-4.5-1.3A36.9,36.9,0,0,1,462,169a9.3,9.3,0,0,1-4.1-3,6.7,6.7,0,0,1-1.6-4.7,7.3,7.3,0,0,1,1.7-4.7,10.5,10.5,0,0,1,4.8-3.2,23.7,23.7,0,0,1,7.5-.9,19.6,19.6,0,0,1,5.9.9,12.5,12.5,0,0,1,4.1,2.2,8.2,8.2,0,0,1,2.2,2.7,5.1,5.1,0,0,1,.6,2.7,2.6,2.6,0,0,1-1.1,2.1,3.8,3.8,0,0,1-2.3.8,4.8,4.8,0,0,1-2-.7,13.7,13.7,0,0,1-1.3-2,8,8,0,0,0-2.3-2.9,6.8,6.8,0,0,0-4.4-1.2,8.7,8.7,0,0,0-4.7,1,3.2,3.2,0,0,0-1.8,2.7,2.7,2.7,0,0,0,.6,1.7,4.2,4.2,0,0,0,1.6,1.3l2.1.8,3.5.9a56,56,0,0,1,5.4,1.7,14.4,14.4,0,0,1,4.1,2.1,7.9,7.9,0,0,1,2.5,2.9A8.5,8.5,0,0,1,483.7,176.4Z"/><path class="cls-1" d="M530.4,181.5a9.8,9.8,0,0,1-1.3,3.2,13.7,13.7,0,0,1-8.1,5.2,22.9,22.9,0,0,1-6.4.1,43.7,43.7,0,0,1-4.9-1.2,19.8,19.8,0,0,1-3.8-2,12.6,12.6,0,0,1-3-3.1,15.8,15.8,0,0,1-2-3.6,32.5,32.5,0,0,1-1.1-4.2,18.5,18.5,0,0,1,0-4.7,17.8,17.8,0,0,1,2-6.8,14.2,14.2,0,0,1,4.2-4.9,15.1,15.1,0,0,1,6.1-2.6,18.8,18.8,0,0,1,7.1-.2,16.2,16.2,0,0,1,7.6,2.7,12.5,12.5,0,0,1,4.7,4.7,6.1,6.1,0,0,1,1,4.7,2.5,2.5,0,0,1-1.1,1.7,2.8,2.8,0,0,1-2.3.5,3.4,3.4,0,0,1-2-.9,9.4,9.4,0,0,1-1.2-2.2,10,10,0,0,0-2.8-4.2,10.3,10.3,0,0,0-4.6-1.9,9.6,9.6,0,0,0-7.7,2.1,13.2,13.2,0,0,0-3.7,8.4,15.4,15.4,0,0,0,.4,6.4,9.2,9.2,0,0,0,2.8,4.2,10,10,0,0,0,4.7,1.8,9.7,9.7,0,0,0,5.3-.7,7.6,7.6,0,0,0,3.7-3.6,9.3,9.3,0,0,1,1.6-1.8,2.4,2.4,0,0,1,2.3-.4,2.8,2.8,0,0,1,2,1.2A2.2,2.2,0,0,1,530.4,181.5Z"/><path class="cls-1" d="M556.4,163.5a21.3,21.3,0,0,1,9.2,4.4,13.1,13.1,0,0,1,4.7,7.2,18,18,0,0,1-.4,9.2,22.4,22.4,0,0,1-2.9,6.3,20.5,20.5,0,0,1-4.5,4.3,16.7,16.7,0,0,1-6.1,1.9,22.5,22.5,0,0,1-7.3-.4,23.3,23.3,0,0,1-6.9-2.8,14.1,14.1,0,0,1-4.5-4.6,13.2,13.2,0,0,1-2.2-5.8,18.3,18.3,0,0,1,.1-7,18.9,18.9,0,0,1,2.4-6.5,17.1,17.1,0,0,1,4.4-4.5,14.3,14.3,0,0,1,6.3-2.1A22.1,22.1,0,0,1,556.4,163.5Zm6.4,18.8a12.3,12.3,0,0,0,.2-6.3,9.1,9.1,0,0,0-2.6-4.8,10.1,10.1,0,0,0-5.2-2.5,9.4,9.4,0,0,0-4.1-.3,9.8,9.8,0,0,0-3.7,1.4,12.8,12.8,0,0,0-2.9,3.2,16.1,16.1,0,0,0-1.9,9.8,10.9,10.9,0,0,0,1.2,4,9,9,0,0,0,2.7,2.8,9.9,9.9,0,0,0,3.6,1.7,11.9,11.9,0,0,0,5.3-.2,9.2,9.2,0,0,0,4.4-2.9,14.4,14.4,0,0,0,3-5.9Z"/><path class="cls-1" d="M585.9,175.5l-7,22.6c4.6,1.4,9.2,2.9,13.7,4.6a3.5,3.5,0,0,1,2.3,1.6,2.6,2.6,0,0,1,.3,2.1,3.1,3.1,0,0,1-1.5,1.5,5.3,5.3,0,0,1-2.8-.1c-5.4-1.9-10.7-3.6-16.2-5.3a4.7,4.7,0,0,1-2.9-1.8,4.2,4.2,0,0,1-.1-3.3l6.9-24a4.3,4.3,0,0,1,1.8-2.6,3.7,3.7,0,0,1,2.9-.2,4,4,0,0,1,2.4,1.8A4.2,4.2,0,0,1,585.9,175.5Z"/><path class="cls-1" d="M614.8,185.5c-2.8,7.4-5.7,14.7-8.5,22.2q6.9,2.6,13.5,5.4a3.8,3.8,0,0,1,2.3,1.8,2.6,2.6,0,0,1,0,2.1,1.9,1.9,0,0,1-1.6,1.4,3.6,3.6,0,0,1-2.7-.4c-5.3-2.2-10.6-4.3-16-6.3a4.3,4.3,0,0,1-2.7-2.1,4.4,4.4,0,0,1,0-3.2c2.9-7.8,5.8-15.7,8.6-23.5a4.2,4.2,0,0,1,2-2.5,4.8,4.8,0,0,1,2.9,0,4.3,4.3,0,0,1,2.4,2A4.1,4.1,0,0,1,614.8,185.5Z"/><path class="cls-1" d="M658.1,206.7l-15.3-7.5-3.5,7.2c4.8,2.2,9.4,4.5,14,6.9a3.2,3.2,0,0,1,1.9,1.7,1.8,1.8,0,0,1-.1,2,2.2,2.2,0,0,1-1.5,1.3,5.8,5.8,0,0,1-2.6-.6c-4.5-2.4-9.2-4.7-13.8-6.8l-3.8,8.4c5,2.3,10.1,4.9,15.1,7.5a3.2,3.2,0,0,1,1.8,1.8,1.8,1.8,0,0,1-.1,2.1,2.2,2.2,0,0,1-1.6,1.2,4,4,0,0,1-2.6-.5c-5.7-3-11.5-5.8-17.4-8.5a5.1,5.1,0,0,1-2.7-2.3,4.7,4.7,0,0,1,.3-3.3c3.4-7.3,6.7-14.8,10.1-22.2a3.5,3.5,0,0,1,1.4-2,2.9,2.9,0,0,1,1.8-.5,7.7,7.7,0,0,1,2.7.7c6.2,2.8,12.2,5.9,18.3,8.9a5,5,0,0,1,2.1,2,2.3,2.3,0,0,1,0,2,2.6,2.6,0,0,1-1.8,1.2A4.4,4.4,0,0,1,658.1,206.7Z"/><path class="cls-1" d="M688.6,241l-3.5,5.2a5.7,5.7,0,0,1-1.2,1.5l-1.5.6h-2.3a29,29,0,0,1-6.5-1.4,31.5,31.5,0,0,1-5.9-2.7,24.8,24.8,0,0,1-5.9-4.8,16.2,16.2,0,0,1-3.4-5.8,13.8,13.8,0,0,1-.7-6.4,15.6,15.6,0,0,1,2.2-6.7,18.1,18.1,0,0,1,4.4-5.5,12.5,12.5,0,0,1,6-2.9,15.5,15.5,0,0,1,7.1.2,23.7,23.7,0,0,1,7.9,3.3,20,20,0,0,1,5.3,4.3,11.7,11.7,0,0,1,2.9,4.4,10.2,10.2,0,0,1,1,3.9,5.2,5.2,0,0,1-.7,2.7,2.8,2.8,0,0,1-2,1.2,4.3,4.3,0,0,1-2.7-.6l-1.2-1.1a3,3,0,0,1-.5-1.6c-.2-1.5-.4-2.7-.5-3.7a10.5,10.5,0,0,0-1.4-2.8,10.6,10.6,0,0,0-3.4-2.6,12.5,12.5,0,0,0-4.5-1.8,8.8,8.8,0,0,0-7.9,2.2,13,13,0,0,0-3.1,3.9,12.4,12.4,0,0,0-1.8,9,11,11,0,0,0,5.5,6.8,19.7,19.7,0,0,0,4.4,2,18.6,18.6,0,0,0,4.7.9l2.8-4.4-4.8-3a10.3,10.3,0,0,1-2.5-2.1,2.4,2.4,0,0,1,.1-2.3,2.7,2.7,0,0,1,1.7-1,3.5,3.5,0,0,1,2.4.6l7.3,4.5,2.1,1.6a5,5,0,0,1,1,1.9A5.8,5.8,0,0,1,688.6,241Z"/><path class="cls-1" d="M722.5,247.4c-4.8-3.5-9.4-7-14.3-10.4l-4.5,6.6,12.9,9.3a4.1,4.1,0,0,1,1.6,2.1,2,2,0,0,1-.3,2,2.2,2.2,0,0,1-1.9.9,3.5,3.5,0,0,1-2.4-1c-4.2-3.1-8.5-6.3-12.7-9.2l-5.4,7.6c4.8,3.2,9.5,6.6,14,10.1a3.6,3.6,0,0,1,1.6,2.2,2.1,2.1,0,0,1-.5,2.1,2,2,0,0,1-1.7.9,4.4,4.4,0,0,1-2.6-1c-5.3-4.1-10.7-7.9-16-11.7a5.2,5.2,0,0,1-2.4-2.7,3.7,3.7,0,0,1,.9-3.2l13.6-20.2a4.6,4.6,0,0,1,1.7-1.7,2.7,2.7,0,0,1,2-.2,9.1,9.1,0,0,1,2.6,1.3c5.7,3.8,11.3,7.9,16.8,12.2a4.5,4.5,0,0,1,1.9,2.2,2.7,2.7,0,0,1-.5,2.1,1.8,1.8,0,0,1-1.8.8A4.7,4.7,0,0,1,722.5,247.4Z"/></g><path class="cls-1" d="M1239,386.4q-33.7-27.4-34.2-80.4h46q1.4,68.8,83.4,68.8c22.7,0,40.1-4.3,52.3-13.1s18.3-21.4,18.3-38c0-13.5-5.1-23.9-15.1-31.2s-28.1-13.8-54.2-19.6l-26.2-5.6q-47.2-9.4-71.4-30.9c-16-14.4-24.1-34.1-24.1-59.4s9.8-45.3,29.3-60.4S1288.9,94,1322.2,94q60.1,0,90.5,25.8t31.2,71h-45.6c-1.4-19.8-8-34.3-19.6-43.7s-30.3-13.9-56.1-13.9c-20,0-35.4,3.7-46,11.2s-15.9,18-15.9,31.8,4.7,24.6,14.2,31.8,26.9,14.3,52.5,19.8l26.6,5.6c35,7.4,60.1,18.2,75.5,32.2s23,33,23,56.8c0,28.3-10.6,50.7-31.6,67s-50.3,24.6-87.5,24.6Q1272.8,414,1239,386.4Z"/><path class="cls-1" d="M1701,100.9v41.3H1599.5V407.1h-46.8V142.2H1451.2V100.9Z"/><path class="cls-1" d="M1683.8,407.1V355.9h52.1v51.2Z"/><path class="cls-1" d="M1878.6,388.6q-25.8-25.4-25.8-69.7V299.1h44.3v19.8c0,17.5,4.6,31,13.8,40.4s21.9,14.2,38.2,14.2,29.6-4.6,38.7-13.9,13.8-22.9,13.8-40.7v-218h45.6v218c0,29.3-8.7,52.4-26,69.5s-41.3,25.6-71.6,25.6S1895.8,405.5,1878.6,388.6Z"/><path class="cls-1" d="M2124.6,369.7q-41.4-43.9-41.3-115.7t41.3-116.1Q2165,94.1,2232.9,94t108.4,43.9q40.8,44.7,40.8,116.1t-40.8,115.7Q2300.1,414,2232.9,414T2124.6,369.7Zm182.3-29.3q27.4-31.3,27.5-86.4c0-36.7-9.2-65.6-27.5-86.9s-43.3-31.8-74-31.8-55.3,10.6-73.9,31.8-28,50.8-28,86.9,9.3,65.2,28,86.4,43,32.3,73.9,32.3S2288.5,361.9,2306.9,340.4Z"/><path class="cls-1" d="M2438.3,386.4q-33.7-27.4-34.2-80.4h46q1.2,68.8,83.4,68.8c22.6,0,40.1-4.3,52.2-13.1s18.3-21.4,18.3-38q0-20.2-15-31.2c-10.1-7.3-28.1-13.8-54.2-19.6l-26.2-5.6q-47.4-9.4-71.4-30.9c-16.1-14.4-24.1-34.1-24.1-59.4s9.7-45.3,29.2-60.4S2488.2,94,2521.5,94q60.1,0,90.5,25.8t31.1,71h-45.5c-1.5-19.8-8-34.3-19.6-43.7s-30.3-13.9-56.1-13.9c-20.1,0-35.4,3.7-46,11.2s-15.9,18-15.9,31.8,4.7,24.6,14.2,31.8,26.9,14.3,52.4,19.8l26.7,5.6c34.9,7.4,60.1,18.2,75.4,32.2s23,33,23,56.8c0,28.3-10.5,50.7-31.6,67s-50.2,24.6-87.5,24.6Q2472,414,2438.3,386.4Z"/><path class="cls-1" d="M2906.7,142.2H2734.3v86.4h156.1v40.5H2734.3v96.7h171.1v41.3H2688.3V100.9h218.4Z"/><path class="cls-1" d="M3074.4,100.9q49.9,0,77.4,26c18.4,17.4,27.5,41,27.5,70.8s-9.1,52.9-27.5,70.3-44.1,26-77.4,26h-84.2V407.1h-46.1V100.9Zm-.8,152.7q28.8,0,43.8-14.4c10.1-9.6,15.1-23.5,15.1-41.5s-5-32-15.1-41.7-24.6-14.7-43.8-14.7h-83.4V253.6Z"/><path class="cls-1" d="M3421.4,100.9h46V407.1h-46V270.8H3263.6V407.1h-46V100.9h46V228.6h157.8Z"/><path class="cls-1" d="M3512.2,100.9H3562v53.3q0,53.9-44.2,56.8l-5.6.4V185.6l4.7-.4c11.2-1.1,16.8-10.6,16.8-28.4v-6.9h-21.5Z"/><path class="cls-1" d="M3616,386.4q-33.7-27.4-34.2-80.4h46q1.3,68.8,83.5,68.8c22.6,0,40-4.3,52.2-13.1s18.3-21.4,18.3-38c0-13.5-5-23.9-15.1-31.2s-28.1-13.8-54.2-19.6l-26.2-5.6q-47.2-9.4-71.4-30.9c-16-14.4-24-34.1-24-59.4s9.7-45.3,29.2-60.4S3666,94,3699.2,94c40.2,0,70.3,8.6,90.5,25.8s30.6,40.9,31.2,71h-45.6c-1.4-19.8-7.9-34.3-19.5-43.7s-30.4-13.9-56.2-13.9c-20,0-35.4,3.7-46,11.2s-15.9,18-15.9,31.8,4.8,24.6,14.2,31.8,27,14.3,52.5,19.8l26.6,5.6c35,7.4,60.2,18.2,75.5,32.2s23,33,23,56.8c0,28.3-10.5,50.7-31.6,67s-50.2,24.6-87.5,24.6Q3649.8,414,3616,386.4Z"/><path class="cls-1" d="M1246.9,886.5q-40.4-42.9-40.4-116.5t40-116.5Q1286.6,610,1351,610c33.8,0,62.9,9.1,87.3,27.1s40,45.5,46.9,81.3h-46.5q-8.5-33.6-31.6-50.5t-56.1-17q-44.2,0-70.5,32T1254.3,770q0,55.1,26.2,87.1t70.5,32a94.2,94.2,0,0,0,59.3-20.2c17-13.5,27.1-33.1,30.6-58.9h46q-5.6,57.2-44.3,88.6T1351,930Q1286.9,930,1246.9,886.5Z"/><path class="cls-1" d="M1554,885.7q-41.4-44-41.3-115.7T1554,653.9q40.4-43.8,108.3-43.9t108.4,43.9q40.8,44.7,40.8,116.1t-40.8,115.7Q1729.5,930,1662.3,930T1554,885.7Zm182.3-29.3q27.5-31.4,27.5-86.4c0-36.7-9.2-65.6-27.5-86.9s-43.3-31.8-74-31.8-55.3,10.6-73.9,31.8-28,50.8-28,86.9,9.3,65.2,28,86.4,43,32.3,73.9,32.3S1717.9,877.9,1736.3,856.4Z"/><path class="cls-1" d="M1898,881.8h150v41.3H1851.9V616.9H1898Z"/><path class="cls-1" d="M2128.4,881.8h150.1v41.3H2082.4V616.9h46Z"/><path class="cls-1" d="M2531.3,658.2H2358.9v86.4H2515v40.5H2358.9v96.7H2530v41.3H2312.9V616.9h218.4Z"/><path class="cls-1" d="M2707.6,762.3h133.3V923.1h-35.2l-8.2-40.9q-34.4,47.7-99.8,47.8t-105.3-44.3q-40.1-44-40-115.7t40.4-116.1q40-43.8,107.5-43.9,56.4,0,93.3,29.3t43.9,78.7h-47.3q-6.4-31.1-30.8-49c-16.1-12.1-35.7-18.1-58.6-18.1q-46.1,0-73.1,32.2c-18.4,21.3-27.6,50.2-27.6,86.9s9.2,65.6,27.6,86.9,43.2,32.2,73.9,32.2q40.1,0,67.5-24.9t28.8-62.8h-90.3Z"/><path class="cls-1" d="M3108.4,658.2H2936v86.4h156v40.5H2936v96.7h171.1v41.3H2890V616.9h218.4Z"/></g></svg>